<?xml version="1.0" encoding="UTF-8" standalone="no"?>
<svg
   xmlns:dc="http://purl.org/dc/elements/1.1/"
   xmlns:cc="http://creativecommons.org/ns#"
   xmlns:rdf="http://www.w3.org/1999/02/22-rdf-syntax-ns#"
   xmlns:svg="http://www.w3.org/2000/svg"
   xmlns="http://www.w3.org/2000/svg"
   xmlns:sodipodi="http://sodipodi.sourceforge.net/DTD/sodipodi-0.dtd"
   xmlns:inkscape="http://www.inkscape.org/namespaces/inkscape"
   viewBox="0 0 400 120"
   height="120"
   width="400"
   xml:space="preserve"
   id="svg2"
   version="1.1"
   sodipodi:docname="landscape.svg"
   inkscape:version="0.92.2pre0 (973e216, 2017-07-25)"><sodipodi:namedview
     pagecolor="#ffffff"
     bordercolor="#666666"
     borderopacity="1"
     objecttolerance="10"
     gridtolerance="10"
     guidetolerance="10"
     inkscape:pageopacity="0"
     inkscape:pageshadow="2"
     inkscape:window-width="1366"
     inkscape:window-height="689"
     id="namedview645"
     showgrid="false"
     inkscape:snap-global="false"
     inkscape:zoom="1.8349515"
     inkscape:cx="240.27066"
     inkscape:cy="55.632375"
     inkscape:window-x="0"
     inkscape:window-y="0"
     inkscape:window-maximized="1"
     inkscape:current-layer="layer4" /><metadata
     id="metadata8"><rdf:RDF><cc:Work
         rdf:about=""><dc:format>image/svg+xml</dc:format><dc:type
           rdf:resource="http://purl.org/dc/dcmitype/StillImage" /><dc:title></dc:title></cc:Work></rdf:RDF></metadata><defs
     id="defs6" /><g
     transform="matrix(0.78240207,0,0,-0.78240207,19.529336,61.92004)"
     id="g10"><g
       transform="scale(0.1)"
       id="g12"><g
         id="g5155" /><g
         id="g5158" /><g
         id="g5161" /></g></g><g
     inkscape:groupmode="layer"
     id="layer2"
     inkscape:label="bg"
     style="display:inline"
     transform="translate(0,-80)"><rect
       style="fill:#00112b;fill-opacity:1;stroke-width:16.25060272"
       id="rect5145"
       width="400"
       height="120"
       x="0"
       y="80" /><g
       inkscape:groupmode="layer"
       id="layer5"
       inkscape:label="number"><path
         inkscape:connector-curvature="0"
         d="m 280.06266,149.11125 h 14.91406 v -4.291 h -8.26488 l 1.49607,-1.39976 c 1.13936,-1.00939 2.46403,-2.49055 3.96902,-4.44372 0.69024,-0.95452 1.26992,-1.9746 1.72501,-3.05433 0.44923,-1.07391 0.68429,-2.159 0.70525,-3.26577 -0.0214,-2.27285 -0.75999,-3.94921 -2.22502,-5.03996 C 290.92199,126.53706 289.01763,126 286.68208,126 c -0.59966,0 -1.39938,0.0666 -2.39948,0.19012 -1.00997,0.17916 -2.24989,0.55883 -3.725,1.13936 l 0.20017,4.72489 v 0 c 1.54974,-0.98737 3.33966,-1.50801 5.37452,-1.57325 0.83958,0 1.53471,0.21737 2.07951,0.6508 0.5559,0.47742 0.83071,1.21569 0.83071,2.20872 -0.0206,0.7646 -0.28478,1.58921 -0.80071,2.468 -0.54394,0.9117 -1.25,1.87182 -2.10452,2.88052 -1.84476,2.01814 -3.86953,4.05304 -6.07462,6.09791 z m 19.17396,-10.50343 c 1.49999,-0.37432 3.02479,-0.5583 4.56964,-0.5583 1.16531,0 2.22996,0.22798 3.19012,0.68318 0.45921,0.25515 0.82482,0.59159 1.08962,1.00411 0.25504,0.43923 0.38057,0.98188 0.38057,1.64384 0,0.71043 -0.12059,1.29624 -0.36557,1.75229 -0.25502,0.47664 -0.59457,0.85701 -1.01491,1.14464 -0.41431,0.25471 -0.88448,0.43923 -1.40439,0.55831 -0.54578,0.1248 -1.08564,0.19025 -1.62551,0.19025 -1.73005,0 -3.37939,-0.41243 -4.94907,-1.2424 v 0 l -0.0872,4.89857 c 1.68027,0.52631 3.52977,0.80326 5.54974,0.82503 2.41522,0.0222 4.51978,-0.58589 6.31462,-1.82836 1.82571,-1.23668 2.75587,-3.41255 2.79479,-6.51569 -0.0406,-2.49056 -0.83962,-4.29135 -2.40431,-5.40314 -1.53989,-1.07973 -3.40938,-1.62239 -5.60959,-1.62239 -0.3406,0 -0.8954,0.0445 -1.65525,0.12481 v -3.76509 h 8.89027 V 126.396 H 299.3761 l -0.14048,12.21175"
         style="fill:#2cabe1;fill-opacity:1;fill-rule:nonzero;stroke:none;stroke-width:0.09960017"
         id="path28" /></g><g
       inkscape:groupmode="layer"
       id="layer4"
       inkscape:label="name"><path
         inkscape:connector-curvature="0"
         d="m 110,149.6031 h 6.78656 c 3.2445,0.0222 5.88794,-0.83532 7.93184,-2.57698 2.03414,-1.7358 3.06999,-4.69842 3.10643,-8.88664 -0.0364,-4.31311 -1.05852,-7.29138 -3.06527,-8.94591 -2.00275,-1.57852 -4.66029,-2.34893 -7.973,-2.30572 H 110 Z m 5.10018,-18.23411 h 1.89264 c 3.77103,0.0222 5.68169,2.31138 5.73217,6.87359 -0.0307,4.59004 -1.94265,6.87888 -5.73217,6.87888 h -1.89264 z m 29.88104,11.46363 v -1.07972 c 0.0194,-2.62038 -0.49519,-4.83949 -1.53539,-6.66203 -1.08138,-1.83968 -2.89595,-2.78847 -5.45271,-2.8431 -2.18114,0.031 -3.94548,0.80324 -5.29697,2.3222 -1.39319,1.53538 -2.10355,3.71584 -2.13099,6.54809 0.027,2.81606 0.81122,4.98 2.3513,6.49897 1.48875,1.56775 3.39471,2.36031 5.71343,2.38208 1.81064,0 3.5009,-0.35834 5.07719,-1.07973 v -4.13405 0 c -1.47079,0.88993 -2.87756,1.32381 -4.22018,1.30212 -2.40573,0.0444 -3.77133,-1.04153 -4.09213,-3.25483 z m -9.63669,-3.3041 c 0.0498,-1.03091 0.29768,-1.88824 0.74272,-2.57723 0.43484,-0.65615 1.07622,-0.99227 1.92861,-1.01441 0.47679,0 0.89391,0.0885 1.24655,0.25515 0.32058,0.18486 0.59114,0.43956 0.81115,0.75926 0.40813,0.68899 0.6093,1.54632 0.6093,2.57723 z m 12.37654,10.07458 h 4.7796 v -7.17764 c 0.0193,-3.55353 0.98483,-5.32225 2.9002,-5.3008 0.73792,0.0222 1.2692,0.3369 1.59425,0.9392 0.3077,0.60231 0.45906,1.41037 0.45906,2.41951 v 9.11973 h 4.77906 v -7.17764 c 0.0194,-3.55353 0.98494,-5.32225 2.90044,-5.3008 0.73777,0.0222 1.26904,0.3369 1.59447,0.9392 0.30733,0.60231 0.45837,1.41037 0.45837,2.41951 v 9.11973 h 4.77904 v -9.99851 c 0.0197,-2.33862 -0.3023,-4.15048 -0.95748,-5.43597 -0.69632,-1.24784 -2.04824,-1.88792 -4.04627,-1.92085 -1.01275,0 -1.95182,0.24977 -2.8317,0.7597 -0.88446,0.53662 -1.61299,1.3669 -2.1901,2.48451 v 0 c -0.85677,-2.16449 -2.33722,-3.24421 -4.4356,-3.24421 -1.13666,0 -2.16318,0.27122 -3.08375,0.82469 -0.91666,0.55908 -1.62676,1.45397 -2.13561,2.69096 h -0.0536 v -3.11957 h -4.50881 z m 35.19151,0.39601 c 2.36468,-0.0222 4.30734,-0.80317 5.83338,-2.35458 1.52128,-1.51362 2.29134,-3.67835 2.3093,-6.4992 -0.0193,-2.84812 -0.78802,-5.03998 -2.3093,-6.57536 -1.52134,-1.51896 -3.46375,-2.28927 -5.82878,-2.3222 -2.34145,0.031 -4.26583,0.80324 -5.77338,2.3222 -1.55379,1.53538 -2.34621,3.72724 -2.37365,6.57536 0.027,2.82085 0.81592,4.98558 2.37365,6.4992 1.50317,1.55141 3.42763,2.33281 5.76878,2.35458 z m 0,-4.10154 c -1.05813,-0.0307 -1.82321,-0.52636 -2.30941,-1.48076 -0.49011,-0.91163 -0.73285,-2.00243 -0.73285,-3.27728 0,-1.32918 0.24274,-2.44632 0.73285,-3.35794 0.4862,-0.93341 1.25128,-1.41083 2.30941,-1.43228 1.07263,0.0219 1.85136,0.49887 2.3324,1.43228 0.47216,0.91162 0.71011,2.02876 0.71011,3.35794 0,1.27485 -0.23795,2.36565 -0.71011,3.27728 -0.48104,0.9544 -1.25977,1.44824 -2.3324,1.48076 z m 21.89426,-8.41424 0.35288,-4.29713 c -0.5454,-0.32003 -1.13692,-0.55831 -1.77813,-0.7264 -0.64609,-0.13061 -1.34243,-0.20087 -2.07572,-0.20087 -2.35047,0.0306 -4.27986,0.80819 -5.78744,2.32167 -1.56249,1.53537 -2.355,3.72689 -2.38273,6.57534 0.027,2.81552 0.82024,4.98032 2.38273,6.49393 1.50758,1.54607 3.43697,2.32747 5.78744,2.34924 1.36564,0 2.68503,-0.25515 3.95925,-0.7597 l -0.10368,-4.34517 v 0 c -0.84784,0.54242 -1.84677,0.81354 -2.988,0.81354 -1.05821,0 -1.9656,-0.41219 -2.72609,-1.2424 -0.78837,-0.79744 -1.1914,-1.87158 -1.20966,-3.2174 0,-1.48645 0.3529,-2.64177 1.06286,-3.45533 0.69186,-0.83029 1.56243,-1.2424 2.60732,-1.2424 1.1001,0 2.06666,0.30933 2.90063,0.93308 z m 12.95393,-5.02926 c -0.49516,-0.10776 -1.03584,-0.17337 -1.6264,-0.2063 -1.01292,0 -1.85181,0.3152 -2.50716,0.94957 -0.65036,0.624 -1.18196,1.47575 -1.5845,2.56608 h -0.0543 v -3.11957 h -4.36676 v 16.95925 h 4.77918 v -7.17764 c 0.0199,-3.47213 1.18197,-5.23503 3.501,-5.3008 0.54568,-0.0218 1.0814,0.0445 1.61218,0.19057 z m 15.5287,17.15966 c -0.19632,-1.34513 -0.28893,-2.68538 -0.27009,-4.00906 v -6.31521 c -0.0378,-2.58225 -0.68219,-4.40513 -1.938,-5.46812 -1.27894,-1.06857 -2.8317,-1.59526 -4.65131,-1.57357 -2.025,0 -3.8715,0.40188 -5.53487,1.21041 l 0.0766,3.97053 v 0 c 1.36054,-0.86784 2.83661,-1.29097 4.42625,-1.2692 0.90332,0 1.65833,0.1842 2.26385,0.5535 0.5817,0.43343 0.87951,1.23132 0.89843,2.38658 -0.65143,-0.15695 -1.39341,-0.23828 -2.236,-0.23828 -0.65141,0 -1.37051,0.053 -2.15836,0.15694 -0.81571,0.11952 -1.60457,0.37432 -2.36452,0.76506 -0.74704,0.35782 -1.36552,0.9334 -1.86057,1.71488 -0.51789,0.80774 -0.77881,1.86034 -0.77881,3.16227 0.0263,1.823 0.54979,3.16891 1.57167,4.03628 1.0169,0.86816 2.22206,1.30237 3.62945,1.30237 1.89639,0.0222 3.35847,-0.99831 4.39333,-3.06494 h 0.0502 c 0,0.87297 0.0303,1.76257 0.0997,2.67956 z m -9.66833,-5.38136 c 0,-0.83029 0.28408,-1.42198 0.84772,-1.7581 0.55863,-0.33109 1.24688,-0.4991 2.06679,-0.4991 0.73285,0.0222 1.40717,0.0529 2.02582,0.0973 0,1.01976 -0.25693,1.94209 -0.77001,2.75028 -0.53192,0.83029 -1.2649,1.25852 -2.19528,1.2805 -0.56869,0 -1.03068,-0.17366 -1.38824,-0.52651 -0.38945,-0.30895 -0.5868,-0.75925 -0.5868,-1.34481 z m 11.76793,-7.48729 h 2.7439 v 6.89528 c -0.0191,2.02428 0.33961,3.57562 1.06362,4.6603 0.76505,1.11212 2.18131,1.67668 4.26103,1.69845 1.15038,-0.0222 2.14925,-0.13036 2.99681,-0.33689 l -0.15523,-3.8136 c -0.47623,0.1574 -0.9671,0.23883 -1.47106,0.23883 -0.72013,0 -1.22316,-0.26059 -1.51191,-0.77535 -0.28905,-0.52097 -0.42145,-1.29709 -0.40343,-2.32253 v -6.24449 h 3.36343 v -4.10123 h -3.36343 v -5.59324 0 l -4.68829,1.77935 v 3.81389 h -2.83544 z m 26.897,12.86865 c -0.19633,-1.34513 -0.28788,-2.68538 -0.2701,-4.00906 v -6.31521 c -0.0373,-2.58225 -0.68219,-4.40513 -1.93804,-5.46812 -1.27889,-1.06857 -2.83166,-1.59526 -4.65136,-1.57357 -2.02491,0 -3.87149,0.40188 -5.53485,1.21041 l 0.0766,3.97053 v 0 c 1.36054,-0.86784 2.83661,-1.29097 4.42625,-1.2692 0.90337,0 1.65933,0.1842 2.26391,0.5535 0.58166,0.43343 0.87946,1.23132 0.89838,2.38658 -0.65138,-0.15695 -1.39341,-0.23828 -2.23603,-0.23828 -0.65138,0 -1.37047,0.053 -2.15933,0.15694 -0.81572,0.11952 -1.60355,0.37432 -2.3635,0.76506 -0.74701,0.35782 -1.36552,0.9334 -1.86053,1.71488 -0.51792,0.80774 -0.77887,1.86034 -0.77887,3.16227 0.0263,1.823 0.54978,3.16891 1.57169,4.03628 1.01691,0.86816 2.22208,1.30237 3.62942,1.30237 1.89638,0.0222 3.35852,-0.99831 4.39434,-3.06494 h 0.0494 c 0,0.87297 0.0303,1.76257 0.0997,2.67956 z m -9.66836,-5.38136 c 0,-0.83029 0.284,-1.42198 0.84769,-1.7581 0.55985,-0.33109 1.24693,-0.4991 2.06676,-0.4991 0.73295,0.0222 1.40635,0.0529 2.0259,0.0973 0,1.01976 -0.25699,1.94209 -0.77,2.75028 -0.53195,0.83029 -1.26489,1.25852 -2.1953,1.2805 -0.56751,0 -1.03066,-0.17366 -1.38823,-0.52651 -0.38952,-0.30895 -0.58682,-0.75925 -0.58682,-1.34481 z m 12.72495,0.67784 -0.25584,4.26429 c 1.33253,0.54768 3.0416,0.82461 5.12228,0.82461 1.67733,0.0222 3.18018,-0.36897 4.50406,-1.17749 1.35243,-0.80324 2.04365,-2.29996 2.0806,-4.49753 -0.0191,-1.57861 -0.39337,-2.73394 -1.12747,-3.47756 -0.32084,-0.38987 -0.71423,-0.7054 -1.18238,-0.93834 -0.43923,-0.22273 -0.89336,-0.39609 -1.36936,-0.52633 -0.43538,-0.14624 -0.86654,-0.28721 -1.28792,-0.42853 -0.43514,-0.12479 -0.83856,-0.24393 -1.2051,-0.34712 -0.35262,-0.12448 -0.62751,-0.30398 -0.83475,-0.52638 -0.23302,-0.18978 -0.3476,-0.43955 -0.3476,-0.74283 0.0199,-0.47742 0.26594,-0.80317 0.74312,-0.97159 0.47597,-0.13518 0.98899,-0.2059 1.54865,-0.2059 1.37359,0 2.6574,0.37959 3.85261,1.14433 v 0 l 0.38954,-4.0683 c -1.58975,-0.67837 -3.24808,-1.00946 -4.97114,-0.98777 -1.48495,0 -2.83158,0.42334 -4.04566,1.2696 -1.27888,0.86808 -1.93923,2.28393 -1.97505,4.24244 0,0.73254 0.0997,1.3562 0.29776,1.87716 0.2012,0.54769 0.46705,0.99305 0.78772,1.33445 0.33473,0.34727 0.7102,0.63482 1.12757,0.85709 0.43014,0.2547 0.86549,0.45564 1.30572,0.6023 0.43518,0.14129 0.86556,0.27113 1.28676,0.40181 0.41737,0.1248 0.79392,0.2654 1.12757,0.42816 0.33072,0.14657 0.59658,0.32574 0.79385,0.5373 0.20114,0.26587 0.30671,0.57527 0.30671,0.92201 -0.0199,0.56411 -0.22003,0.92813 -0.60567,1.09615 -0.40229,0.17872 -0.87542,0.27121 -1.4113,0.27121 -1.87341,-0.0442 -3.42723,-0.43397 -4.65528,-1.17724"
         style="fill:#ffffff;fill-opacity:1;fill-rule:nonzero;stroke:none;stroke-width:0.09960017"
         id="path26" /></g><g
       inkscape:groupmode="layer"
       id="layer3"
       inkscape:label="tree"><g
         transform="matrix(0.08418282,0,0,-0.08418282,-28.717753,226.07696)"
         id="g5182"><path
           id="path14"
           style="fill:#8bc541;fill-opacity:1;fill-rule:evenodd;stroke:none"
           d="m 1009.26,755.895 c -62.221,74.484 -140.53,289.865 -218.24,499.945 -32.809,55.7 -25.196,98.55 31.382,139.98 168.735,150.3 470.778,146.85 513.508,-95.7 6.33,-68.63 -10.22,-135.53 -42.59,-201.24 -57.7,-117.122 -205.63,-207.595 -284.06,-342.985"
           inkscape:connector-curvature="0" /><path
           id="path16"
           style="fill:#2cabe1;fill-opacity:1;fill-rule:evenodd;stroke:none"
           d="m 1030.66,781.602 c 103.2472,27.62839 211.0075,51.8567 292.9251,95.7311 82.8108,44.35274 139.2123,108.78231 137.8449,217.0969 -12.01,227.12 -366.95,228.07 -415.08,151.41 -9.39,-32.2 -16.29,-65.04 -21.16,-98.37 41.33,-96.83 44.3,-208.693 2.19,-336.419 1.05,-9.809 2.14,-19.621 3.28,-29.449"
           inkscape:connector-curvature="0"
           sodipodi:nodetypes="csccccc" /><path
           id="path18"
           style="fill:#1782c5;fill-opacity:1;fill-rule:evenodd;stroke:none"
           d="m 1020.67,791.605 c -113.635,40.469 -227.272,75.227 -340.908,115.7 -78.328,23.441 -107.574,49.386 -99.852,111.415 15.727,307.55 273.719,345.11 395.117,215.69 88.443,-119.39 109.363,-266.277 45.643,-442.805"
           inkscape:connector-curvature="0" /><path
           id="path20"
           style="fill:#0b904b;fill-opacity:1;fill-rule:evenodd;stroke:none"
           d="m 1020.67,791.605 c -15.23,5.422 -30.463,10.743 -45.697,15.989 -55.504,98.527 -119.934,275.176 -183.953,448.246 -9.34,15.86 -15.395,30.67 -17.985,44.71 72.52,14.18 149.852,-10.55 201.992,-66.14 88.443,-119.39 109.363,-266.277 45.643,-442.805"
           inkscape:connector-curvature="0" /><path
           id="path22"
           style="fill:#00a650;fill-opacity:1;fill-rule:evenodd;stroke:none"
           d="m 1337.12,1262.52 c -111.11,48.78 -260.73,31.18 -290.77,-16.68 -9.39,-32.2 -16.29,-65.04 -21.16,-98.37 41.33,-96.83 44.3,-208.693 2.19,-336.419 0.81,-7.563 1.65,-15.137 2.51,-22.711 81.48,117.961 210.47,203.027 263.43,310.54 26.43,53.66 42.31,108.1 43.8,163.64"
           inkscape:connector-curvature="0" /><path
           id="path24"
           style="fill:#014250;fill-opacity:1;fill-rule:evenodd;stroke:none"
           d="m 922.25,547.344 c 62.762,0 125.52,0 188.29,0 -53.77,86.402 -39.87,229.347 -17.12,377.101 -51.27,-8.437 -99.897,-11.492 -144.662,2.899 11.812,-136.969 15.043,-262.129 -26.508,-380"
           inkscape:connector-curvature="0" /></g></g></g></svg>