<?xml version="1.0" encoding="UTF-8" standalone="no"?>
<svg
   xmlns:dc="http://purl.org/dc/elements/1.1/"
   xmlns:cc="http://creativecommons.org/ns#"
   xmlns:rdf="http://www.w3.org/1999/02/22-rdf-syntax-ns#"
   xmlns:svg="http://www.w3.org/2000/svg"
   xmlns="http://www.w3.org/2000/svg"
   xmlns:sodipodi="http://sodipodi.sourceforge.net/DTD/sodipodi-0.dtd"
   xmlns:inkscape="http://www.inkscape.org/namespaces/inkscape"
   viewBox="0 0 200 200"
   height="200"
   width="200"
   xml:space="preserve"
   id="svg2"
   version="1.1"
   sodipodi:docname="dem.svg"
   inkscape:version="0.92.2pre0 (973e216, 2017-07-25)"><sodipodi:namedview
     pagecolor="#ffffff"
     bordercolor="#666666"
     borderopacity="1"
     objecttolerance="10"
     gridtolerance="10"
     guidetolerance="10"
     inkscape:pageopacity="0"
     inkscape:pageshadow="2"
     inkscape:window-width="1366"
     inkscape:window-height="689"
     id="namedview645"
     showgrid="false"
     inkscape:snap-global="false"
     inkscape:zoom="1.8349515"
     inkscape:cx="54.053667"
     inkscape:cy="132.32698"
     inkscape:window-x="0"
     inkscape:window-y="0"
     inkscape:window-maximized="1"
     inkscape:current-layer="layer2" /><metadata
     id="metadata8"><rdf:RDF><cc:Work
         rdf:about=""><dc:format>image/svg+xml</dc:format><dc:type
           rdf:resource="http://purl.org/dc/dcmitype/StillImage" /><dc:title></dc:title></cc:Work></rdf:RDF></metadata><defs
     id="defs6" /><g
     transform="matrix(0.78240207,0,0,-0.78240207,19.529336,141.92004)"
     id="g10"><g
       transform="scale(0.1)"
       id="g12"><g
         id="g5155" /><g
         id="g5158" /><g
         id="g5161" /></g></g><g
     inkscape:groupmode="layer"
     id="layer2"
     inkscape:label="bg"
     style="display:inline"><rect
       style="fill:#00112b;fill-opacity:1;stroke-width:14.83470345"
       id="rect5145"
       width="200"
       height="200"
       x="0"
       y="0" /><g
       inkscape:groupmode="layer"
       id="layer5"
       inkscape:label="number"><path
         inkscape:connector-curvature="0"
         d="m 153.59159,135.30189 h 11.71569 v -3.37074 h -6.49237 l 1.17516,-1.09967 c 0.89507,-0.79273 1.93567,-1.95632 3.11788,-3.49053 0.5422,-0.7497 0.99756,-1.55103 1.35512,-2.39916 0.35286,-0.84382 0.53751,-1.69625 0.55394,-2.56573 -0.0164,-1.78544 -0.59698,-3.10207 -1.74789,-3.95911 -1.147,-0.84805 -2.64295,-1.26984 -4.47769,-1.26984 -0.471,0 -1.09927,0.0513 -1.8848,0.14944 -0.79336,0.1406 -1.76745,0.43893 -2.92619,0.89491 l 0.15727,3.71148 v 0 c 1.21741,-0.77536 2.62339,-1.18432 4.22184,-1.23565 0.65956,0 1.20568,0.17057 1.63365,0.5113 0.43658,0.37501 0.65253,0.95477 0.65253,1.73475 -0.0156,0.60088 -0.22377,1.24847 -0.62906,1.93887 -0.42719,0.71613 -0.98191,1.47036 -1.65321,2.26286 -1.44901,1.5853 -3.03963,3.18375 -4.77187,4.7901 z m 15.06202,-8.25066 c 1.1783,-0.29403 2.37616,-0.43885 3.58966,-0.43885 0.91541,0 1.7518,0.17909 2.50604,0.53696 0.36068,0.20014 0.64783,0.46451 0.85594,0.7885 0.2003,0.34504 0.29888,0.77137 0.29888,1.29128 0,0.55809 -0.0947,1.0183 -0.28714,1.37656 -0.20029,0.37469 -0.46709,0.67326 -0.79727,0.89914 -0.32548,0.20013 -0.69477,0.34503 -1.10318,0.43884 -0.42876,0.0981 -0.85282,0.14913 -1.27688,0.14913 -1.35904,0 -2.6547,-0.32391 -3.88776,-0.97581 v 0 l -0.0673,3.84809 c 1.31991,0.41357 2.77284,0.63085 4.35955,0.64798 1.89732,0.0171 3.55054,-0.46029 4.96043,-1.43618 1.43414,-0.97158 2.1649,-2.68066 2.19542,-5.11831 -0.0305,-1.95632 -0.65957,-3.37106 -1.88872,-4.24453 -1.2096,-0.84813 -2.67816,-1.27446 -4.40649,-1.27446 -0.26758,0 -0.70338,0.0343 -1.30035,0.0981 v -2.95755 h 6.98372 v -3.22186 h -10.62424 l -0.11032,9.59296"
         style="fill:#2cabe1;fill-opacity:1;fill-rule:nonzero;stroke:none;stroke-width:0.07824021"
         id="path28" /></g><g
       inkscape:groupmode="layer"
       id="layer4"
       inkscape:label="name"><path
         inkscape:connector-curvature="0"
         d="m 20,135.68824 h 5.331028 c 2.548651,0.0171 4.625381,-0.6562 6.230792,-2.02423 1.598134,-1.36365 2.411676,-3.69067 2.44039,-6.98075 -0.02871,-3.38819 -0.831537,-5.72773 -2.407999,-7.02761 -1.573019,-1.23987 -3.660781,-1.84506 -6.263183,-1.81111 H 20 Z m 4.006452,-14.32351 h 1.486564 c 2.962433,0.0171 4.463393,1.81572 4.503061,5.39951 -0.02535,3.60547 -1.526232,5.40374 -4.503061,5.40374 h -1.486564 z m 23.472634,9.00498 v -0.84813 c 0.0144,-2.05834 -0.388697,-3.80138 -1.205994,-5.23325 -0.849298,-1.44494 -2.274756,-2.19041 -4.283339,-2.23321 -1.713304,0.0257 -3.099329,0.63085 -4.161049,1.82401 -1.094189,1.206 -1.652199,2.91907 -1.673949,5.14398 0.02175,2.21185 0.637266,3.91201 1.846938,5.10518 1.169613,1.23165 2.666896,1.8539 4.488406,1.87103 1.422094,0 2.749987,-0.28119 3.988138,-0.84812 v -3.24728 0 c -1.155294,0.699 -2.260437,1.03973 -3.314881,1.02268 -1.88997,0.0342 -2.962722,-0.81816 -3.214577,-2.55689 z m -7.56974,-2.59539 c 0.03943,-0.80963 0.23386,-1.4832 0.583202,-2.02446 0.341675,-0.51561 0.845621,-0.77967 1.515279,-0.79672 0.374379,0 0.701971,0.0681 0.978941,0.20013 0.25209,0.14522 0.464512,0.34536 0.637188,0.59659 0.320629,0.54126 0.478596,1.21483 0.478596,2.02446 z m 9.722285,7.91392 h 3.754356 v -5.63822 c 0.01432,-2.7913 0.773796,-4.18069 2.278434,-4.16387 0.579447,0.0171 0.996936,0.26437 1.252391,0.73749 0.241449,0.47312 0.360374,1.1082 0.360374,1.90069 v 7.16391 h 3.754278 v -5.63822 c 0.0144,-2.7913 0.773874,-4.18069 2.278433,-4.16387 0.579526,0.0171 0.997015,0.26437 1.25247,0.73749 0.241449,0.47312 0.360061,1.1082 0.360061,1.90069 v 7.16391 h 3.754278 v -7.8543 c 0.01471,-1.83684 -0.237459,-3.26011 -0.752123,-4.27019 -0.547055,-0.9802 -1.609166,-1.48289 -3.178508,-1.50863 -0.795547,0 -1.533352,0.19623 -2.22437,0.59658 -0.695007,0.42179 -1.2671,1.074 -1.720658,1.95178 v 0 c -0.673023,-1.70024 -1.835907,-2.54836 -3.484428,-2.54836 -0.892721,0 -1.698986,0.21305 -2.422395,0.64767 -0.720045,0.43916 -1.277819,1.14207 -1.677548,2.11397 h -0.04311 v -2.45048 h -3.541934 z m 27.644457,0.31108 c 1.857344,-0.0171 3.383576,-0.63077 4.582294,-1.84967 1.194963,-1.18886 1.799838,-2.88934 1.814156,-5.10541 -0.01432,-2.2372 -0.619193,-3.95911 -1.814156,-5.16511 -1.195041,-1.19316 -2.721038,-1.79827 -4.578617,-1.82401 -1.839584,0.0257 -3.351185,0.63085 -4.535507,1.82401 -1.220312,1.206 -1.84287,2.92791 -1.86462,5.16511 0.02175,2.21607 0.640943,3.91655 1.86462,5.10541 1.180958,1.2189 2.692637,1.83254 4.53183,1.84967 z m 0,-3.22193 c -0.831302,-0.0254 -1.432422,-0.41318 -1.814156,-1.1632 -0.385098,-0.71605 -0.575848,-1.5727 -0.575848,-2.57425 0,-1.04404 0.19075,-1.92182 0.575848,-2.63787 0.381734,-0.73319 0.982854,-1.1082 1.814156,-1.12502 0.842647,0.0168 1.454172,0.39183 1.832229,1.12502 0.37078,0.71605 0.557774,1.59383 0.557774,2.63787 0,1.00155 -0.186994,1.8582 -0.557774,2.57425 -0.378057,0.75002 -0.989582,1.13785 -1.832229,1.1632 z m 17.198841,-6.60973 0.277205,-3.37536 c -0.428522,-0.25154 -0.893034,-0.43885 -1.396744,-0.57092 -0.507623,-0.10234 -1.054678,-0.15765 -1.630526,-0.15765 -1.846547,0.0253 -3.362138,0.63476 -4.546461,1.82393 -1.227432,1.206 -1.849989,2.92759 -1.871662,5.16511 0.02167,2.21177 0.64423,3.91232 1.871662,5.10118 1.184323,1.2146 2.699914,1.82824 4.546461,1.84537 1.072751,0 2.109121,-0.20013 3.110048,-0.59658 l -0.08278,-3.41354 v 0 c -0.665981,0.4261 -1.450808,0.63907 -2.347206,0.63907 -0.831302,0 -1.544071,-0.32368 -2.141513,-0.97582 -0.619271,-0.62654 -0.935831,-1.47013 -0.950227,-2.52723 0,-1.16782 0.277205,-2.07556 0.834979,-2.71463 0.543378,-0.65221 1.227354,-0.97581 2.048016,-0.97581 0.864319,0 1.623484,0.24294 2.278746,0.73288 z m 10.175841,-3.95051 c -0.38885,-0.0853 -0.8137,-0.13629 -1.27766,-0.16203 -0.7957,0 -1.45449,0.24732 -1.96931,0.74578 -0.5109,0.49018 -0.92871,1.15921 -1.2448,2.01586 h -0.0438 v -2.45048 h -3.430288 v 13.32196 h 3.754198 v -5.63822 c 0.0149,-2.72738 0.92871,-4.11247 2.75015,-4.16387 0.42875,-0.0168 0.84968,0.0343 1.2667,0.14944 z m 12.19843,13.47962 c -0.15413,-1.05687 -0.22689,-2.10944 -0.21203,-3.14948 v -4.96059 c -0.0289,-2.02845 -0.53594,-3.46064 -1.52255,-4.29562 -1.00461,-0.83952 -2.22437,-1.25302 -3.65382,-1.23596 -1.59062,0 -3.0412,0.31546 -4.34781,0.95054 l 0.061,3.1192 v 0 c 1.06876,-0.68155 2.22828,-1.01407 3.47699,-0.99694 0.70964,0 1.3027,0.14459 1.7784,0.43463 0.45693,0.34074 0.69087,0.96728 0.70573,1.87495 -0.51169,-0.12347 -1.09458,-0.18731 -1.75649,-0.18731 -0.51169,0 -1.07659,0.0425 -1.69547,0.12346 -0.64078,0.0938 -1.26045,0.29403 -1.85742,0.60089 -0.5868,0.28112 -1.07267,0.73319 -1.46153,1.3469 -0.40685,0.63477 -0.61184,1.46145 -0.61184,2.48437 0.0211,1.43187 0.43189,2.48905 1.23464,3.1706 0.79883,0.68186 1.74553,1.02291 2.85107,1.02291 1.48969,0.0171 2.63826,-0.7842 3.45117,-2.40768 h 0.0399 c 0,0.68609 0.025,1.38477 0.079,2.10513 z m -7.59477,-4.2274 c 0,-0.65221 0.22298,-1.1168 0.66582,-1.38086 0.43893,-0.26007 0.97957,-0.39206 1.62348,-0.39206 0.57585,0.0171 1.10554,0.0424 1.59141,0.0767 0,0.80103 -0.20186,1.52569 -0.6048,2.16045 -0.4178,0.65221 -0.99365,0.98872 -1.72441,1.00586 -0.44675,0 -0.80979,-0.1363 -1.09067,-0.4135 -0.30592,-0.2427 -0.46083,-0.59658 -0.46083,-1.05656 z m 9.24408,-5.88147 h 2.15552 v 5.41657 c -0.0141,1.58992 0.26679,2.80874 0.8356,3.66078 0.60089,0.87379 1.71346,1.31694 3.34712,1.33407 0.90367,-0.0171 1.68842,-0.1021 2.35424,-0.26437 l -0.12205,-2.99574 c -0.37399,0.12346 -0.75971,0.18739 -1.15561,0.18739 -0.56567,0 -0.96079,-0.20452 -1.18768,-0.6091 -0.2269,-0.40928 -0.33096,-1.01869 -0.31688,-1.82433 v -4.90527 h 2.64217 v -3.22162 h -2.64217 v -4.39397 0 l -3.68276,1.39792 v 2.99605 h -2.2275 z m 21.12877,10.10887 c -0.15414,-1.05687 -0.22612,-2.10944 -0.21204,-3.14948 v -4.96059 c -0.0289,-2.02845 -0.53594,-3.46064 -1.52255,-4.29562 -1.0046,-0.83952 -2.22437,-1.25302 -3.65382,-1.23596 -1.59062,0 -3.04119,0.31546 -4.34781,0.95054 l 0.061,3.1192 v 0 c 1.06876,-0.68155 2.22828,-1.01407 3.477,-0.99694 0.70964,0 1.30348,0.14459 1.7784,0.43463 0.45692,0.34074 0.69086,0.96728 0.70572,1.87495 -0.51169,-0.12347 -1.09458,-0.18731 -1.75649,-0.18731 -0.51169,0 -1.07658,0.0425 -1.69625,0.12346 -0.64078,0.0938 -1.25966,0.29403 -1.85664,0.60089 -0.5868,0.28112 -1.07267,0.73319 -1.46152,1.3469 -0.40685,0.63477 -0.61184,1.46145 -0.61184,2.48437 0.0211,1.43187 0.43188,2.48905 1.23463,3.1706 0.79883,0.68186 1.74554,1.02291 2.85107,1.02291 1.48969,0.0171 2.63826,-0.7842 3.45196,-2.40768 h 0.0391 c 0,0.68609 0.025,1.38477 0.079,2.10513 z m -7.59478,-4.2274 c 0,-0.65221 0.22298,-1.1168 0.66582,-1.38086 0.43971,-0.26007 0.97957,-0.39206 1.62349,-0.39206 0.57585,0.0171 1.10475,0.0424 1.5914,0.0767 0,0.80103 -0.20186,1.52569 -0.60479,2.16045 -0.41781,0.65221 -0.99365,0.98872 -1.72442,1.00586 -0.44597,0 -0.80978,-0.1363 -1.09067,-0.4135 -0.30592,-0.2427 -0.46083,-0.59658 -0.46083,-1.05656 z m 9.99597,0.53266 -0.20108,3.3497 c 1.04685,0.43032 2.38946,0.64759 4.02389,0.64759 1.31757,0.0171 2.49821,-0.28972 3.53803,-0.9248 1.0625,-0.63085 1.60549,-1.80687 1.63443,-3.53301 -0.0141,-1.23995 -0.30904,-2.14769 -0.88567,-2.73176 -0.25194,-0.30646 -0.56099,-0.55409 -0.92872,-0.7371 -0.34503,-0.17487 -0.70181,-0.31116 -1.0758,-0.41358 -0.34191,-0.11485 -0.68069,-0.22548 -1.01164,-0.33643 -0.34191,-0.0981 -0.65879,-0.19192 -0.94671,-0.27298 -0.27697,-0.0978 -0.49291,-0.23863 -0.65565,-0.41319 -0.18309,-0.14912 -0.27306,-0.34535 -0.27306,-0.58375 0.0149,-0.375 0.2089,-0.63077 0.58367,-0.76315 0.37399,-0.10633 0.77693,-0.16165 1.21664,-0.16165 1.07893,0 2.08744,0.29826 3.02633,0.89883 v 0 l 0.30592,-3.19588 c -1.24872,-0.53274 -2.55142,-0.79281 -3.90497,-0.77575 -1.16656,0 -2.22437,0.33229 -3.17812,0.99733 -1.0046,0.68178 -1.52334,1.79397 -1.5515,3.33248 0,0.57554 0.079,1.0654 0.23393,1.47467 0.15805,0.43032 0.36695,0.77998 0.61888,1.04827 0.26289,0.27266 0.55786,0.49846 0.88568,0.67333 0.338,0.20014 0.67991,0.35787 1.02573,0.47312 0.34191,0.11094 0.67991,0.21297 1.01087,0.31539 0.32782,0.0981 0.62357,0.20874 0.88568,0.33651 0.25975,0.11517 0.46865,0.25576 0.62357,0.42202 0.15805,0.20875 0.24098,0.45176 0.24098,0.72435 -0.0149,0.44316 -0.17291,0.72897 -0.4757,0.86096 -0.31609,0.1406 -0.68773,0.21305 -1.10866,0.21305 -1.4717,-0.034 -2.69225,-0.34082 -3.65695,-0.92457"
         style="fill:#ffffff;fill-opacity:1;fill-rule:nonzero;stroke:none;stroke-width:0.07824021"
         id="path26" /></g><g
       inkscape:groupmode="layer"
       id="layer3"
       inkscape:label="tree"><g
         transform="matrix(0.07824021,0,0,-0.07824021,19.529336,157.92004)"
         id="g5182"><path
           id="path14"
           style="fill:#8bc541;fill-opacity:1;fill-rule:evenodd;stroke:none"
           d="m 1009.26,755.895 c -62.221,74.484 -140.53,289.865 -218.24,499.945 -32.809,55.7 -25.196,98.55 31.382,139.98 168.735,150.3 470.778,146.85 513.508,-95.7 6.33,-68.63 -10.22,-135.53 -42.59,-201.24 -57.7,-117.122 -205.63,-207.595 -284.06,-342.985"
           inkscape:connector-curvature="0" /><path
           id="path16"
           style="fill:#2cabe1;fill-opacity:1;fill-rule:evenodd;stroke:none"
           d="m 1030.66,781.602 c 103.2472,27.62839 211.0075,51.8567 292.9251,95.7311 82.8108,44.35274 139.2123,108.78231 137.8449,217.0969 -12.01,227.12 -366.95,228.07 -415.08,151.41 -9.39,-32.2 -16.29,-65.04 -21.16,-98.37 41.33,-96.83 44.3,-208.693 2.19,-336.419 1.05,-9.809 2.14,-19.621 3.28,-29.449"
           inkscape:connector-curvature="0"
           sodipodi:nodetypes="csccccc" /><path
           id="path18"
           style="fill:#1782c5;fill-opacity:1;fill-rule:evenodd;stroke:none"
           d="m 1020.67,791.605 c -113.635,40.469 -227.272,75.227 -340.908,115.7 -78.328,23.441 -107.574,49.386 -99.852,111.415 15.727,307.55 273.719,345.11 395.117,215.69 88.443,-119.39 109.363,-266.277 45.643,-442.805"
           inkscape:connector-curvature="0" /><path
           id="path20"
           style="fill:#0b904b;fill-opacity:1;fill-rule:evenodd;stroke:none"
           d="m 1020.67,791.605 c -15.23,5.422 -30.463,10.743 -45.697,15.989 -55.504,98.527 -119.934,275.176 -183.953,448.246 -9.34,15.86 -15.395,30.67 -17.985,44.71 72.52,14.18 149.852,-10.55 201.992,-66.14 88.443,-119.39 109.363,-266.277 45.643,-442.805"
           inkscape:connector-curvature="0" /><path
           id="path22"
           style="fill:#00a650;fill-opacity:1;fill-rule:evenodd;stroke:none"
           d="m 1337.12,1262.52 c -111.11,48.78 -260.73,31.18 -290.77,-16.68 -9.39,-32.2 -16.29,-65.04 -21.16,-98.37 41.33,-96.83 44.3,-208.693 2.19,-336.419 0.81,-7.563 1.65,-15.137 2.51,-22.711 81.48,117.961 210.47,203.027 263.43,310.54 26.43,53.66 42.31,108.1 43.8,163.64"
           inkscape:connector-curvature="0" /><path
           id="path24"
           style="fill:#014250;fill-opacity:1;fill-rule:evenodd;stroke:none"
           d="m 922.25,547.344 c 62.762,0 125.52,0 188.29,0 -53.77,86.402 -39.87,229.347 -17.12,377.101 -51.27,-8.437 -99.897,-11.492 -144.662,2.899 11.812,-136.969 15.043,-262.129 -26.508,-380"
           inkscape:connector-curvature="0" /></g></g></g></svg>