<?xml version="1.0" encoding="UTF-8" standalone="no"?>
<!-- Created with Inkscape (http://www.inkscape.org/) -->

<svg
   xmlns:dc="http://purl.org/dc/elements/1.1/"
   xmlns:cc="http://creativecommons.org/ns#"
   xmlns:rdf="http://www.w3.org/1999/02/22-rdf-syntax-ns#"
   xmlns:svg="http://www.w3.org/2000/svg"
   xmlns="http://www.w3.org/2000/svg"
   xmlns:sodipodi="http://sodipodi.sourceforge.net/DTD/sodipodi-0.dtd"
   xmlns:inkscape="http://www.inkscape.org/namespaces/inkscape"
   version="1.1"
   id="svg2"
   xml:space="preserve"
   width="200"
   height="200"
   viewBox="0 0 200 200"
   sodipodi:docname="portrait.svg"
   inkscape:version="0.92.2pre0 (973e216, 2017-07-25)"><metadata
     id="metadata8"><rdf:RDF><cc:Work
         rdf:about=""><dc:format>image/svg+xml</dc:format><dc:type
           rdf:resource="http://purl.org/dc/dcmitype/StillImage" /><dc:title></dc:title></cc:Work></rdf:RDF></metadata><defs
     id="defs6" /><sodipodi:namedview
     pagecolor="#ffffff"
     bordercolor="#666666"
     borderopacity="1"
     objecttolerance="10"
     gridtolerance="10"
     guidetolerance="10"
     inkscape:pageopacity="0"
     inkscape:pageshadow="2"
     inkscape:window-width="1366"
     inkscape:window-height="689"
     id="namedview4"
     showgrid="false"
     inkscape:zoom="1.456131"
     inkscape:cx="229.9039"
     inkscape:cy="46.006615"
     inkscape:window-x="0"
     inkscape:window-y="0"
     inkscape:window-maximized="1"
     inkscape:current-layer="g63" /><g
     id="g10"
     inkscape:groupmode="layer"
     inkscape:label="bg"
     transform="matrix(1.3333333,0,0,-1.3333333,0,199.99999)"><g
       id="g12"
       transform="scale(0.1)"><g
         id="g14"
         transform="matrix(0.18404687,0,0,0.12199883,-6.5934974e-4,-7.5000002e-5)"><path
           d="M 8150.1016,0 H 0.00358251 V 12295.2 H 8150.1016 V 0"
           style="fill:#f25c19;fill-opacity:1;fill-rule:nonzero;stroke:none;stroke-width:0.91287094"
           id="path16"
           inkscape:connector-curvature="0" /></g><g
         id="g36"
         transform="matrix(1.2070963,0,0,1.2070963,-206.38583,471.30601)"><g
           id="g63"
           transform="matrix(1.0689021,0,0,1.0689021,21.588193,-35.109912)"><path
             d="m 692.13456,60.999006 c 0,-55.6139701 -46.2711,-102.79268 -131.7472,-102.79268 -52.6516,0 -90.475,17.55243 -111.2234,48.0942699 l 54.932,51.7372201 c 13.6826,-16.4088 33.7345,-25.30358 58.3472,-25.30358 30.9933,0 43.7547,13.44769 43.7547,30.31718 0,15.95724 -18.4568,25.74952 -42.3954,25.74952 h -34.1725 l 15.7157,72.936124 h 35.3296 c 31.9145,0 47.1809,13.22302 47.1809,29.633 0,14.35985 -13.9072,23.25116 -36.0035,23.25116 -24.1634,0 -47.4169,-11.85589 -64.739,-25.98091 l -35.3296,60.16688 c 28.9489,25.52265 64.0426,40.33863 114.8744,40.33863 67.9181,0 109.3924,-40.5689 109.3924,-84.78753 0,-34.86787 -25.0621,-69.05494 -62.2115,-83.87194 25.5226,-12.53559 38.2952,-34.874594 38.2952,-59.487344"
             style="fill:#ffffff;fill-opacity:1;fill-rule:nonzero;stroke:none;stroke-width:0.11233556"
             id="path18"
             inkscape:connector-curvature="0" /><path
             d="m 847.15766,38.890216 c -25.5226,0 -40.5644,20.51471 -40.5644,56.52282 0,49.004094 25.5226,113.052214 72.9283,113.052214 25.7472,0 40.8002,-20.51804 40.8002,-56.52725 0,-48.99966 -25.7473,-113.047784 -73.1641,-113.047784 m 38.0593,250.257814 c -108.9431,0 -167.7395,-111.68399 -167.7395,-202.165834 0,-83.8753501 54.4603,-128.77469 124.2094,-128.77469 108.943,0 167.75084,111.67721 167.75084,202.165754 0,83.87535 -54.47164,128.77477 -124.22074,128.77477"
             style="fill:#ffffff;fill-opacity:1;fill-rule:nonzero;stroke:none;stroke-width:0.11233556"
             id="path20"
             inkscape:connector-curvature="0" /><path
             d="m 743.17415,425.24597 c 0,-10.32588 -8.3645,-18.67689 -18.66792,-18.67689 h -85.16945 c -10.30904,0 -18.67916,8.35101 -18.67916,18.67689 v 44.09508 c 0,10.30339 8.37012,18.67689 18.67916,18.67689 h 85.16945 c 10.30342,0 18.66792,-8.3735 18.66792,-18.67689 z m -18.66792,100.51559 h -85.16945 c -31.12706,0 -56.44974,-25.30696 -56.44974,-56.42051 v -44.09508 c 0,-31.11583 25.32268,-56.4228 56.44974,-56.4228 h 85.16945 c 31.11695,0 56.40816,25.30697 56.40816,56.4228 v 44.09508 c 0,31.11355 -25.29121,56.42051 -56.40816,56.42051"
             style="fill:#ffffff;fill-opacity:1;fill-rule:nonzero;stroke:none;stroke-width:0.11233556"
             id="path22"
             inkscape:connector-curvature="0" /><path
             d="m 1148.3202,425.24597 c 0,-10.32588 -8.3679,-18.67689 -18.6713,-18.67689 h -85.1683 c -10.3102,0 -18.6803,8.35101 -18.6803,18.67689 v 44.09508 c 0,10.30339 8.3701,18.67689 18.6803,18.67689 h 85.1683 c 10.3034,0 18.6713,-8.3735 18.6713,-18.67689 z m -18.6713,100.51559 h -85.1683 c -31.1271,0 -56.45091,-25.30696 -56.45091,-56.42051 v -44.09508 c 0,-31.11583 25.32381,-56.4228 56.45091,-56.4228 h 85.1683 c 31.1181,0 56.4048,25.30697 56.4048,56.4228 v 44.09508 c 0,31.11355 -25.2867,56.42051 -56.4048,56.42051"
             style="fill:#ffffff;fill-opacity:1;fill-rule:nonzero;stroke:none;stroke-width:0.11233556"
             id="path24"
             inkscape:connector-curvature="0" /><path
             d="M 503.75226,525.78294 H 309.66562 l -53.65147,-0.0125 c 0,-26.47749 18.46235,-37.87726 40.84409,-37.69196 0.037,0 67.12836,0.0103 67.12836,0.0103 v -21.8852 l -78.1451,-0.007 c 0,-26.47749 18.46347,-37.87734 40.84407,-37.69085 0.0202,0 19.38126,0 37.30103,0.007 V 406.6624 l -38.54121,-0.007 c -0.0427,-0.93458 -0.0584,-0.97165 -0.0584,-0.99192 0.0103,-21.64251 17.61759,-38.31541 38.59962,-38.31541 21.62684,0 37.48525,16.52681 37.48525,38.39405 l -0.0103,63.57409 c 0,10.31917 8.40719,18.76114 18.75891,18.76114 h 82.87668 c 10.35059,0 18.75892,-8.44197 18.75892,-18.76114 l -0.0214,-100.43134 h 38.01324 l -0.0685,100.43134 c 0,30.91586 -25.19126,55.95887 -56.02736,56.46548"
             style="fill:#ffffff;fill-opacity:1;fill-rule:nonzero;stroke:none;stroke-width:0.11233556"
             id="path26"
             inkscape:connector-curvature="0" /><path
             d="m 944.53454,525.78294 -54.1424,-116.32461 v 0 c -0.97395,-2.27258 -3.22848,-3.86548 -5.85715,-3.86548 0,0 -0.0457,0 -0.0575,0 v -0.007 0.007 c -0.0125,0 -0.0575,0 -0.0575,0 -2.62868,0 -4.88321,1.5929 -5.85722,3.86548 v 0 l -54.14354,116.32461 h -41.64618 l 62.76636,-134.60272 h 0.0214 c 6.9446,-14.53617 21.74141,-24.61047 38.92204,-24.61047 17.17945,0 31.97626,10.0743 38.92086,24.61047 h 0.0214 l 62.76636,134.60272 h -41.64729"
             style="fill:#ffffff;fill-opacity:1;fill-rule:nonzero;stroke:none;stroke-width:0.11233556"
             id="path28"
             inkscape:connector-curvature="0" /></g></g></g></g></svg>