<?xml version="1.0" encoding="UTF-8" standalone="no"?>
<!-- Created with Inkscape (http://www.inkscape.org/) -->

<svg
   xmlns:dc="http://purl.org/dc/elements/1.1/"
   xmlns:cc="http://creativecommons.org/ns#"
   xmlns:rdf="http://www.w3.org/1999/02/22-rdf-syntax-ns#"
   xmlns:svg="http://www.w3.org/2000/svg"
   xmlns="http://www.w3.org/2000/svg"
   xmlns:sodipodi="http://sodipodi.sourceforge.net/DTD/sodipodi-0.dtd"
   xmlns:inkscape="http://www.inkscape.org/namespaces/inkscape"
   width="400"
   height="120"
   viewBox="0 0 105.83333 31.750002"
   version="1.1"
   id="svg1849"
   inkscape:version="0.92.2pre0 (973e216, 2017-07-25)"
   sodipodi:docname="landscape.svg">
  <defs
     id="defs1843" />
  <sodipodi:namedview
     id="base"
     pagecolor="#ffffff"
     bordercolor="#666666"
     borderopacity="1.0"
     inkscape:pageopacity="0.0"
     inkscape:pageshadow="2"
     inkscape:zoom="1.979899"
     inkscape:cx="210.0715"
     inkscape:cy="73.391707"
     inkscape:document-units="mm"
     inkscape:current-layer="layer1"
     showgrid="false"
     units="px"
     inkscape:window-width="1366"
     inkscape:window-height="689"
     inkscape:window-x="0"
     inkscape:window-y="0"
     inkscape:window-maximized="1" />
  <metadata
     id="metadata1846">
    <rdf:RDF>
      <cc:Work
         rdf:about="">
        <dc:format>image/svg+xml</dc:format>
        <dc:type
           rdf:resource="http://purl.org/dc/dcmitype/StillImage" />
        <dc:title></dc:title>
      </cc:Work>
    </rdf:RDF>
  </metadata>
  <g
     inkscape:label="Layer 1"
     inkscape:groupmode="layer"
     id="layer1"
     transform="translate(0,-265.24996)">
    <path
       inkscape:connector-curvature="0"
       id="path16"
       style="fill:#8a191e;fill-opacity:1;fill-rule:nonzero;stroke:none;stroke-width:0.23170684"
       d="M 105.83333,296.99997 H 0 v -31.75 h 105.83333 z" />
    <g
       transform="matrix(0.37629629,0,0,-0.37629629,8.6481159,289.06763)"
       id="g26">
      <path
         inkscape:connector-curvature="0"
         id="path28"
         style="fill:#f27915;fill-opacity:1;fill-rule:nonzero;stroke:none"
         d="M 0,0 C -0.096,-0.027 -0.192,-0.051 -0.286,-0.076 -0.253,-0.049 -0.22,-0.025 -0.188,0 Z" />
    </g>
    <g
       transform="matrix(0.37629629,0,0,-0.37629629,8.6481159,289.06763)"
       id="g30">
      <path
         inkscape:connector-curvature="0"
         id="path32"
         style="fill:#f27915;fill-opacity:1;fill-rule:nonzero;stroke:none"
         d="M 0,0 C -0.096,-0.027 -0.192,-0.051 -0.286,-0.076 -0.253,-0.049 -0.22,-0.025 -0.188,0 Z" />
    </g>
    <g
       transform="matrix(0.37629629,0,0,-0.37629629,8.6481159,289.06763)"
       id="g34">
      <path
         inkscape:connector-curvature="0"
         id="path36"
         style="fill:#f27915;fill-opacity:1;fill-rule:nonzero;stroke:none"
         d="M 0,0 C -0.096,-0.027 -0.192,-0.051 -0.286,-0.076 -0.253,-0.049 -0.22,-0.025 -0.188,0 Z" />
    </g>
    <g
       transform="matrix(0.37629629,0,0,-0.37629629,8.6481159,289.06763)"
       id="g38">
      <path
         inkscape:connector-curvature="0"
         id="path40"
         style="fill:#f27915;fill-opacity:1;fill-rule:nonzero;stroke:none"
         d="M 0,0 H -0.188" />
    </g>
    <g
       transform="matrix(0.37629629,0,0,-0.37629629,12.747974,289.06763)"
       id="g42">
      <path
         inkscape:connector-curvature="0"
         id="path44"
         style="fill:#f27915;fill-opacity:1;fill-rule:nonzero;stroke:none"
         d="m 0,0 h 11.491 8.605" />
    </g>
    <g
       transform="matrix(0.37629629,0,0,-0.37629629,5.2916667,289.07914)"
       id="g46">
      <path
         inkscape:connector-curvature="0"
         id="path48"
         style="fill:#f27915;fill-opacity:1;fill-rule:nonzero;stroke:none"
         d="m 0,0 0.731,3.047 0.225,0.205 c 1.179,1.076 2.655,2.226 4.391,3.423 v 0.003 l 0.776,0.524 c 3.334,2.231 7.403,4.52 11.794,6.633 1.825,0.876 3.637,1.692 5.388,2.425 l 2.22,0.928 -1.964,-8.427 -0.5,-0.218 C 21.797,7.991 20.537,7.413 19.316,6.825 14.942,4.721 10.89,2.435 7.597,0.213 L 7.281,0 Z" />
    </g>
    <g
       transform="matrix(0.37629629,0,0,-0.37629629,15.895132,278.22815)"
       id="g50">
      <path
         inkscape:connector-curvature="0"
         id="path52"
         style="fill:#f27915;fill-opacity:1;fill-rule:nonzero;stroke:none"
         d="m 0,0 -1.943,-8.315 -0.525,-0.214 c -1.972,-0.803 -4.003,-1.702 -6.04,-2.677 -0.037,-0.016 -0.072,-0.032 -0.108,-0.049 -0.045,-0.021 -0.09,-0.044 -0.135,-0.065 -7.061,-3.298 -13.182,-6.883 -17.777,-10.298 l 2.152,8.963 0.303,0.221 c 0.442,0.324 0.896,0.647 1.355,0.963 v 0.004 l 0.776,0.525 c 3.334,2.23 7.403,4.52 11.794,6.633 2.703,1.297 5.386,2.464 7.976,3.468 z" />
    </g>
    <g
       transform="matrix(0.37629629,0,0,-0.37629629,16.883586,273.878)"
       id="g54">
      <path
         inkscape:connector-curvature="0"
         id="path56"
         style="fill:#f27915;fill-opacity:1;fill-rule:nonzero;stroke:none"
         d="m 0,0 -1.909,-8.193 -0.003,-0.013 -0.554,-0.207 c -0.154,-0.058 -0.308,-0.118 -0.464,-0.175 -0.026,-0.01 -0.05,-0.02 -0.076,-0.029 -1.708,-0.654 -3.445,-1.375 -5.197,-2.155 l -0.024,-0.01 c -6.903,-3.018 -13.044,-6.353 -17.938,-9.621 l 2.127,8.871 0.349,0.227 c 3.188,2.073 7.002,4.192 11.027,6.127 3.59,1.726 7.137,3.214 10.541,4.425 z" />
    </g>
    <g
       transform="matrix(0.37629629,0,0,-0.37629629,67.49867,279.44125)"
       id="g58">
      <path
         inkscape:connector-curvature="0"
         id="path60"
         style="fill:#ffffff;fill-opacity:1;fill-rule:nonzero;stroke:none"
         d="M 0,0 H 0.647 C 1.067,0 1.358,0.047 1.519,0.14 1.68,0.234 1.785,0.4 1.835,0.639 1.884,0.88 1.851,1.047 1.734,1.141 1.618,1.235 1.343,1.281 0.912,1.281 H 0.265 Z m -2.728,-3.452 1.297,6.27 h 2.58 c 0.57,0 1.015,-0.033 1.335,-0.1 C 2.804,2.652 3.06,2.544 3.254,2.397 3.503,2.201 3.669,1.958 3.751,1.669 3.833,1.379 3.833,1.036 3.75,0.639 3.605,-0.062 3.287,-0.6 2.796,-0.973 2.304,-1.346 1.668,-1.533 0.888,-1.533 h -1.205 l -0.397,-1.919 z" />
    </g>
    <g
       transform="matrix(0.37629629,0,0,-0.37629629,69.95006,279.933)"
       id="g62">
      <path
         inkscape:connector-curvature="0"
         id="path64"
         style="fill:#ffffff;fill-opacity:1;fill-rule:nonzero;stroke:none"
         d="M 0,0 H 1.264 L 1.088,2.171 Z m -3.032,-2.145 3.502,6.27 h 2.039 l 0.909,-6.27 H 1.421 l -0.063,0.83 h -1.996 l -0.414,-0.83 z" />
    </g>
    <g
       transform="matrix(0.37629629,0,0,-0.37629629,72.80675,279.39477)"
       id="g66">
      <path
         inkscape:connector-curvature="0"
         id="path68"
         style="fill:#ffffff;fill-opacity:1;fill-rule:nonzero;stroke:none"
         d="M 0,0 H 0.915 C 1.236,0 1.466,0.043 1.606,0.13 1.746,0.216 1.838,0.368 1.883,0.583 1.929,0.805 1.9,0.958 1.795,1.045 1.691,1.132 1.462,1.175 1.107,1.175 H 0.243 Z m -2.728,-3.576 1.297,6.271 H 1.57 C 2.51,2.695 3.151,2.554 3.495,2.273 3.838,1.992 3.944,1.531 3.811,0.89 3.732,0.507 3.584,0.189 3.367,-0.064 3.15,-0.317 2.855,-0.517 2.481,-0.664 2.814,-0.738 3.038,-0.883 3.152,-1.1 3.266,-1.318 3.286,-1.636 3.21,-2.056 L 3.064,-2.929 C 3.063,-2.935 3.063,-2.942 3.064,-2.95 3.02,-3.2 3.053,-3.33 3.161,-3.342 L 3.113,-3.576 H 1.082 c -0.005,0.15 -0.006,0.282 -0.001,0.394 0.004,0.112 0.013,0.199 0.026,0.262 l 0.13,0.625 c 0.067,0.324 0.05,0.552 -0.05,0.684 -0.101,0.132 -0.309,0.198 -0.624,0.198 H -0.292 L -0.74,-3.576 Z" />
    </g>
    <g
       transform="matrix(0.37629629,0,0,-0.37629629,75.10882,280.74032)"
       id="g70">
      <path
         inkscape:connector-curvature="0"
         id="path72"
         style="fill:#ffffff;fill-opacity:1;fill-rule:nonzero;stroke:none"
         d="M 0,0 0.955,4.619 H -0.85 l 0.342,1.652 H 5.115 L 4.774,4.619 H 2.969 L 2.014,0 Z" />
    </g>
    <g
       transform="matrix(0.37629629,0,0,-0.37629629,77.13175,280.74032)"
       id="g74">
      <path
         inkscape:connector-curvature="0"
         id="path76"
         style="fill:#ffffff;fill-opacity:1;fill-rule:nonzero;stroke:none"
         d="M 0,0 1.297,6.271 H 3.349 L 2.052,0 Z" />
    </g>
    <g
       transform="matrix(0.37629629,0,0,-0.37629629,79.57455,280.14286)"
       id="g78">
      <path
         inkscape:connector-curvature="0"
         id="path80"
         style="fill:#ffffff;fill-opacity:1;fill-rule:nonzero;stroke:none"
         d="m 0,0 h 0.541 c 0.502,0 0.874,0.112 1.114,0.336 0.241,0.225 0.421,0.626 0.541,1.205 0.117,0.565 0.1,0.965 -0.05,1.201 -0.15,0.235 -0.463,0.353 -0.94,0.353 H 0.64 Z m -2.342,-1.588 1.297,6.271 H 1.39 C 2.008,4.683 2.463,4.655 2.754,4.6 3.045,4.544 3.289,4.453 3.487,4.325 3.868,4.07 4.121,3.711 4.243,3.248 4.366,2.785 4.358,2.216 4.218,1.541 4.072,0.832 3.812,0.235 3.441,-0.249 3.07,-0.733 2.596,-1.093 2.02,-1.328 1.796,-1.422 1.526,-1.489 1.21,-1.528 0.894,-1.568 0.397,-1.588 -0.282,-1.588 Z" />
    </g>
    <g
       transform="matrix(0.37629629,0,0,-0.37629629,82.50074,279.56295)"
       id="g82">
      <path
         inkscape:connector-curvature="0"
         id="path84"
         style="fill:#ffffff;fill-opacity:1;fill-rule:nonzero;stroke:none"
         d="m 0,0 c -0.123,-0.593 -0.113,-1.029 0.028,-1.307 0.141,-0.278 0.423,-0.417 0.846,-0.417 0.42,0 0.756,0.138 1.009,0.415 C 2.136,-1.032 2.325,-0.596 2.448,0 2.572,0.599 2.564,1.037 2.426,1.313 2.287,1.59 2.008,1.728 1.588,1.728 1.165,1.728 0.825,1.589 0.569,1.311 0.313,1.033 0.123,0.596 0,0 m -2.031,0 c 0.212,1.022 0.67,1.828 1.375,2.418 0.706,0.59 1.562,0.885 2.57,0.885 C 2.918,3.303 3.65,3.008 4.11,2.418 4.57,1.828 4.694,1.022 4.483,0 4.272,-1.019 3.815,-1.824 3.11,-2.416 2.406,-3.008 1.552,-3.303 0.547,-3.303 c -1.007,0 -1.741,0.295 -2.202,0.887 -0.461,0.592 -0.586,1.397 -0.376,2.416" />
    </g>
    <g
       transform="matrix(0.37629629,0,0,-0.37629629,65.61437,284.88859)"
       id="g86">
      <path
         inkscape:connector-curvature="0"
         id="path88"
         style="fill:#ffffff;fill-opacity:1;fill-rule:nonzero;stroke:none"
         d="M 0,0 1.297,6.27 H 3.31 L 2.87,4.142 H 4.748 L 5.188,6.27 H 7.201 L 5.904,0 H 3.891 L 4.394,2.431 H 2.516 L 2.014,0 Z" />
    </g>
    <g
       transform="matrix(0.37629629,0,0,-0.37629629,69.09124,282.52905)"
       id="g90">
      <path
         inkscape:connector-curvature="0"
         id="path92"
         style="fill:#ffffff;fill-opacity:1;fill-rule:nonzero;stroke:none"
         d="M 0,0 H 2.013 L 1.214,-3.865 C 1.14,-4.223 1.162,-4.478 1.28,-4.629 c 0.117,-0.152 0.351,-0.228 0.7,-0.228 0.34,0 0.599,0.074 0.776,0.223 0.177,0.149 0.303,0.405 0.378,0.769 L 3.934,0 H 5.947 L 5.115,-4.023 C 4.952,-4.809 4.575,-5.409 3.983,-5.824 3.391,-6.238 2.613,-6.445 1.651,-6.445 c -0.968,0 -1.664,0.208 -2.089,0.624 -0.425,0.415 -0.556,1.015 -0.394,1.798 z" />
    </g>
    <g
       transform="matrix(0.37629629,0,0,-0.37629629,72.2969,284.88859)"
       id="g94">
      <path
         inkscape:connector-curvature="0"
         id="path96"
         style="fill:#ffffff;fill-opacity:1;fill-rule:nonzero;stroke:none"
         d="m 0,0 h -1.822 l 1.297,6.27 H 1.927 L 2.148,3.142 C 2.151,3.099 2.153,3.002 2.156,2.85 2.159,2.698 2.164,2.489 2.171,2.222 2.254,2.432 2.329,2.616 2.396,2.773 2.462,2.931 2.517,3.049 2.559,3.129 L 4.098,6.27 H 6.546 L 5.249,0 H 3.427 L 4.082,3.086 C 4.121,3.274 4.159,3.456 4.197,3.633 4.236,3.811 4.276,3.995 4.318,4.185 4.183,3.861 4.027,3.508 3.852,3.125 L 3.828,3.069 2.418,0 H 1.013 L 0.851,3.001 C 0.842,3.137 0.837,3.293 0.837,3.469 0.836,3.646 0.837,3.884 0.84,4.185 0.793,3.915 0.751,3.684 0.716,3.491 0.68,3.298 0.65,3.143 0.626,3.027 Z" />
    </g>
    <g
       transform="matrix(0.37629629,0,0,-0.37629629,75.95413,284.08127)"
       id="g98">
      <path
         inkscape:connector-curvature="0"
         id="path100"
         style="fill:#ffffff;fill-opacity:1;fill-rule:nonzero;stroke:none"
         d="M 0,0 H 1.264 L 1.088,2.171 Z m -3.032,-2.145 3.502,6.27 h 2.039 l 0.908,-6.27 H 1.421 l -0.063,0.83 h -1.996 l -0.414,-0.83 z" />
    </g>
    <g
       transform="matrix(0.37629629,0,0,-0.37629629,77.78447,284.88859)"
       id="g102">
      <path
         inkscape:connector-curvature="0"
         id="path104"
         style="fill:#ffffff;fill-opacity:1;fill-rule:nonzero;stroke:none"
         d="M 0,0 1.297,6.27 H 3.208 L 4.363,3.354 C 4.4,3.272 4.433,3.156 4.464,3.005 4.493,2.855 4.521,2.673 4.545,2.46 4.551,2.571 4.563,2.693 4.582,2.827 4.601,2.96 4.63,3.122 4.669,3.312 L 5.281,6.27 h 1.92 L 5.904,0 H 3.985 L 2.825,2.895 C 2.789,2.98 2.755,3.1 2.723,3.257 2.692,3.413 2.664,3.591 2.64,3.793 2.637,3.682 2.628,3.567 2.611,3.446 2.595,3.325 2.564,3.156 2.519,2.937 L 1.911,0 Z" />
    </g>
    <g
       transform="matrix(0.37629629,0,0,-0.37629629,80.79571,284.88859)"
       id="g106">
      <path
         inkscape:connector-curvature="0"
         id="path108"
         style="fill:#ffffff;fill-opacity:1;fill-rule:nonzero;stroke:none"
         d="M 0,0 1.297,6.27 H 3.349 L 2.052,0 Z" />
    </g>
    <g
       transform="matrix(0.37629629,0,0,-0.37629629,82.39877,284.15335)"
       id="g110">
      <path
         inkscape:connector-curvature="0"
         id="path112"
         style="fill:#ffffff;fill-opacity:1;fill-rule:nonzero;stroke:none"
         d="m 0,0 h 1.958 c 0.007,-0.227 0.071,-0.39 0.193,-0.49 0.121,-0.099 0.322,-0.149 0.603,-0.149 0.236,0 0.429,0.041 0.581,0.122 0.151,0.081 0.242,0.192 0.271,0.334 C 3.653,0.044 3.409,0.228 2.874,0.37 2.766,0.399 2.684,0.42 2.627,0.434 2.189,0.553 1.843,0.662 1.59,0.76 1.336,0.858 1.156,0.949 1.048,1.035 0.843,1.207 0.705,1.415 0.634,1.656 0.563,1.897 0.56,2.173 0.624,2.482 0.752,3.103 1.088,3.591 1.629,3.946 2.171,4.301 2.852,4.478 3.672,4.478 4.478,4.478 5.077,4.309 5.47,3.97 5.862,3.631 6.023,3.145 5.952,2.512 H 4.04 C 4.047,2.696 3.994,2.834 3.881,2.925 3.768,3.015 3.589,3.061 3.345,3.061 3.129,3.061 2.961,3.025 2.842,2.954 2.722,2.883 2.647,2.776 2.617,2.631 2.574,2.424 2.814,2.25 3.336,2.112 3.381,2.097 3.416,2.087 3.44,2.082 3.516,2.062 3.63,2.032 3.784,1.992 4.475,1.808 4.917,1.64 5.11,1.49 5.35,1.305 5.51,1.095 5.589,0.86 5.668,0.624 5.674,0.346 5.608,0.025 5.464,-0.667 5.112,-1.199 4.552,-1.571 3.991,-1.943 3.259,-2.129 2.357,-2.129 1.525,-2.129 0.905,-1.943 0.495,-1.571 0.085,-1.199 -0.08,-0.676 0,0" />
    </g>
    <g
       transform="matrix(0.37629629,0,0,-0.37629629,85.52078,284.88859)"
       id="g114">
      <path
         inkscape:connector-curvature="0"
         id="path116"
         style="fill:#ffffff;fill-opacity:1;fill-rule:nonzero;stroke:none"
         d="M 0,0 0.955,4.619 H -0.85 L -0.508,6.27 H 5.115 L 4.774,4.619 H 2.969 L 2.013,0 Z" />
    </g>
    <g
       transform="matrix(0.37629629,0,0,-0.37629629,88.32253,284.08127)"
       id="g118">
      <path
         inkscape:connector-curvature="0"
         id="path120"
         style="fill:#ffffff;fill-opacity:1;fill-rule:nonzero;stroke:none"
         d="M 0,0 H 1.264 L 1.088,2.171 Z m -3.032,-2.145 3.502,6.27 h 2.039 l 0.908,-6.27 H 1.421 l -0.063,0.83 h -1.996 l -0.414,-0.83 z" />
    </g>
    <g
       transform="matrix(0.37629629,0,0,-0.37629629,92.20885,284.32395)"
       id="g122">
      <path
         inkscape:connector-curvature="0"
         id="path124"
         style="fill:#ffffff;fill-opacity:1;fill-rule:nonzero;stroke:none"
         d="M 0,0 H 0.541 C 1.043,0 1.415,0.112 1.655,0.336 1.896,0.56 2.076,0.962 2.196,1.541 2.313,2.106 2.296,2.506 2.146,2.742 1.996,2.977 1.683,3.095 1.206,3.095 H 0.64 Z m -2.342,-1.588 1.297,6.271 H 1.39 C 2.008,4.683 2.463,4.655 2.754,4.6 3.045,4.544 3.289,4.453 3.487,4.325 3.868,4.07 4.121,3.711 4.243,3.248 4.366,2.785 4.358,2.216 4.218,1.541 4.072,0.832 3.812,0.235 3.441,-0.249 3.07,-0.733 2.596,-1.093 2.02,-1.328 1.796,-1.422 1.526,-1.489 1.21,-1.528 0.894,-1.568 0.397,-1.588 -0.282,-1.588 Z" />
    </g>
    <g
       transform="matrix(0.37629629,0,0,-0.37629629,95.111314,284.11412)"
       id="g126">
      <path
         inkscape:connector-curvature="0"
         id="path128"
         style="fill:#ffffff;fill-opacity:1;fill-rule:nonzero;stroke:none"
         d="M 0,0 H 1.264 L 1.088,2.171 Z m -3.032,-2.145 3.502,6.27 h 2.039 l 0.908,-6.27 H 1.421 l -0.063,0.83 h -1.996 l -0.415,-0.83 z" />
    </g>
    <g
       transform="matrix(0.37629629,0,0,-0.37629629,64.886578,288.30159)"
       id="g130">
      <path
         inkscape:connector-curvature="0"
         id="path132"
         style="fill:#ffffff;fill-opacity:1;fill-rule:nonzero;stroke:none"
         d="m 0,0 h 1.958 c 0.007,-0.227 0.071,-0.39 0.193,-0.49 0.121,-0.099 0.322,-0.149 0.603,-0.149 0.236,0 0.429,0.041 0.581,0.122 0.151,0.081 0.242,0.192 0.271,0.334 C 3.653,0.044 3.409,0.228 2.874,0.37 2.766,0.399 2.684,0.42 2.627,0.434 2.189,0.553 1.843,0.662 1.59,0.76 1.336,0.858 1.155,0.949 1.048,1.035 0.843,1.207 0.705,1.415 0.634,1.656 0.563,1.897 0.56,2.173 0.624,2.482 0.752,3.103 1.088,3.591 1.629,3.946 2.171,4.301 2.852,4.478 3.672,4.478 4.478,4.478 5.077,4.309 5.47,3.97 5.862,3.631 6.023,3.145 5.951,2.512 H 4.04 C 4.047,2.696 3.994,2.834 3.881,2.925 3.767,3.015 3.589,3.061 3.345,3.061 3.129,3.061 2.961,3.025 2.842,2.954 2.722,2.883 2.647,2.776 2.617,2.631 2.574,2.424 2.814,2.25 3.336,2.111 3.381,2.097 3.416,2.087 3.44,2.082 3.516,2.062 3.63,2.032 3.784,1.992 4.475,1.808 4.917,1.64 5.11,1.49 5.35,1.305 5.509,1.095 5.589,0.86 5.668,0.624 5.674,0.346 5.608,0.025 5.464,-0.667 5.112,-1.199 4.552,-1.571 3.991,-1.943 3.259,-2.129 2.357,-2.129 1.525,-2.129 0.904,-1.943 0.495,-1.571 0.085,-1.199 -0.08,-0.676 0,0" />
    </g>
    <g
       transform="matrix(0.37629629,0,0,-0.37629629,68.41861,287.85949)"
       id="g134">
      <path
         inkscape:connector-curvature="0"
         id="path136"
         style="fill:#ffffff;fill-opacity:1;fill-rule:nonzero;stroke:none"
         d="m 0,0 c -0.123,-0.593 -0.113,-1.029 0.028,-1.307 0.141,-0.278 0.423,-0.417 0.846,-0.417 0.42,0 0.756,0.138 1.009,0.415 C 2.136,-1.032 2.325,-0.596 2.448,0 2.572,0.599 2.564,1.036 2.426,1.313 2.287,1.59 2.008,1.728 1.588,1.728 1.165,1.728 0.825,1.589 0.569,1.311 0.313,1.033 0.123,0.596 0,0 m -2.031,0 c 0.212,1.022 0.67,1.828 1.375,2.418 0.706,0.59 1.562,0.885 2.57,0.885 C 2.918,3.303 3.65,3.008 4.11,2.418 4.57,1.828 4.694,1.022 4.483,0 4.272,-1.019 3.814,-1.824 3.11,-2.416 2.406,-3.008 1.552,-3.304 0.547,-3.304 c -1.007,0 -1.741,0.296 -2.202,0.888 -0.461,0.592 -0.586,1.397 -0.376,2.416" />
    </g>
    <g
       transform="matrix(0.37629629,0,0,-0.37629629,70.53603,289.03687)"
       id="g138">
      <path
         inkscape:connector-curvature="0"
         id="path140"
         style="fill:#ffffff;fill-opacity:1;fill-rule:nonzero;stroke:none"
         d="M 0,0 1.297,6.27 H 3.31 L 2.358,1.664 H 5.095 L 4.751,0 Z" />
    </g>
    <g
       transform="matrix(0.37629629,0,0,-0.37629629,72.9739,289.03687)"
       id="g142">
      <path
         inkscape:connector-curvature="0"
         id="path144"
         style="fill:#ffffff;fill-opacity:1;fill-rule:nonzero;stroke:none"
         d="M 0,0 1.297,6.27 H 3.349 L 2.052,0 Z" />
    </g>
    <g
       transform="matrix(0.37629629,0,0,-0.37629629,75.4167,288.43935)"
       id="g146">
      <path
         inkscape:connector-curvature="0"
         id="path148"
         style="fill:#ffffff;fill-opacity:1;fill-rule:nonzero;stroke:none"
         d="M 0,0 H 0.541 C 1.043,0 1.415,0.112 1.655,0.336 1.896,0.56 2.076,0.962 2.196,1.541 2.313,2.106 2.296,2.506 2.146,2.742 1.996,2.977 1.683,3.095 1.206,3.095 H 0.64 Z m -2.342,-1.588 1.297,6.271 H 1.39 C 2.008,4.683 2.463,4.655 2.754,4.6 3.045,4.544 3.289,4.453 3.487,4.325 3.868,4.07 4.121,3.711 4.243,3.248 4.366,2.785 4.358,2.216 4.218,1.541 4.072,0.832 3.812,0.235 3.441,-0.249 3.07,-0.733 2.596,-1.093 2.02,-1.328 1.796,-1.422 1.526,-1.489 1.21,-1.528 0.894,-1.568 0.397,-1.588 -0.282,-1.588 Z" />
    </g>
    <g
       transform="matrix(0.37629629,0,0,-0.37629629,78.31919,288.22954)"
       id="g150">
      <path
         inkscape:connector-curvature="0"
         id="path152"
         style="fill:#ffffff;fill-opacity:1;fill-rule:nonzero;stroke:none"
         d="M 0,0 H 1.264 L 1.088,2.171 Z m -3.032,-2.145 3.502,6.27 h 2.039 l 0.908,-6.27 H 1.421 l -0.063,0.83 h -1.996 l -0.414,-0.83 z" />
    </g>
    <g
       transform="matrix(0.37629629,0,0,-0.37629629,81.17588,287.69131)"
       id="g154">
      <path
         inkscape:connector-curvature="0"
         id="path156"
         style="fill:#ffffff;fill-opacity:1;fill-rule:nonzero;stroke:none"
         d="M 0,0 H 0.915 C 1.236,0 1.466,0.043 1.606,0.13 1.746,0.216 1.838,0.368 1.883,0.583 1.929,0.805 1.9,0.958 1.795,1.045 1.691,1.132 1.462,1.175 1.107,1.175 H 0.243 Z m -2.728,-3.576 1.297,6.271 H 1.57 C 2.51,2.695 3.151,2.554 3.495,2.273 3.838,1.992 3.944,1.531 3.811,0.89 3.732,0.507 3.583,0.189 3.367,-0.064 3.15,-0.316 2.855,-0.516 2.481,-0.664 2.814,-0.738 3.038,-0.883 3.152,-1.1 3.267,-1.317 3.286,-1.636 3.21,-2.056 L 3.064,-2.929 C 3.063,-2.934 3.063,-2.942 3.064,-2.95 3.02,-3.2 3.053,-3.33 3.161,-3.342 L 3.113,-3.576 H 1.082 c -0.005,0.151 -0.006,0.282 -0.001,0.394 0.004,0.112 0.013,0.199 0.026,0.262 l 0.13,0.626 c 0.067,0.323 0.05,0.551 -0.051,0.683 -0.1,0.132 -0.308,0.198 -0.623,0.198 H -0.292 L -0.74,-3.576 Z" />
    </g>
    <g
       transform="matrix(0.37629629,0,0,-0.37629629,82.99422,289.03687)"
       id="g158">
      <path
         inkscape:connector-curvature="0"
         id="path160"
         style="fill:#ffffff;fill-opacity:1;fill-rule:nonzero;stroke:none"
         d="M 0,0 1.297,6.27 H 3.349 L 2.052,0 Z" />
    </g>
    <g
       transform="matrix(0.37629629,0,0,-0.37629629,84.5557,289.03687)"
       id="g162">
      <path
         inkscape:connector-curvature="0"
         id="path164"
         style="fill:#ffffff;fill-opacity:1;fill-rule:nonzero;stroke:none"
         d="m 0,0 1.297,6.27 h 5.01 L 5.997,4.768 H 3 L 2.827,3.933 H 5.361 L 5.063,2.494 H 2.53 L 2.329,1.524 h 3.12 L 5.134,0 Z" />
    </g>
    <g
       transform="matrix(0.37629629,0,0,-0.37629629,88.051,288.43935)"
       id="g166">
      <path
         inkscape:connector-curvature="0"
         id="path168"
         style="fill:#ffffff;fill-opacity:1;fill-rule:nonzero;stroke:none"
         d="M 0,0 H 0.541 C 1.043,0 1.415,0.112 1.655,0.336 1.896,0.56 2.076,0.962 2.196,1.541 2.313,2.106 2.296,2.506 2.146,2.742 1.996,2.977 1.683,3.095 1.206,3.095 H 0.64 Z m -2.342,-1.588 1.297,6.271 H 1.39 C 2.008,4.683 2.463,4.655 2.754,4.6 3.045,4.544 3.289,4.453 3.487,4.325 3.868,4.07 4.121,3.711 4.243,3.248 4.366,2.785 4.358,2.216 4.218,1.541 4.072,0.832 3.812,0.235 3.441,-0.249 3.07,-0.733 2.596,-1.093 2.02,-1.328 1.796,-1.422 1.526,-1.489 1.21,-1.528 0.894,-1.568 0.397,-1.588 -0.282,-1.588 Z" />
    </g>
    <g
       transform="matrix(0.37629629,0,0,-0.37629629,90.95349,288.22954)"
       id="g170">
      <path
         inkscape:connector-curvature="0"
         id="path172"
         style="fill:#ffffff;fill-opacity:1;fill-rule:nonzero;stroke:none"
         d="M 0,0 H 1.264 L 1.088,2.171 Z m -3.032,-2.145 3.502,6.27 h 2.039 l 0.908,-6.27 H 1.421 l -0.063,0.83 h -1.996 l -0.414,-0.83 z" />
    </g>
    <g
       transform="matrix(0.37629629,0,0,-0.37629629,93.665033,288.43935)"
       id="g174">
      <path
         inkscape:connector-curvature="0"
         id="path176"
         style="fill:#ffffff;fill-opacity:1;fill-rule:nonzero;stroke:none"
         d="M 0,0 H 0.541 C 1.043,0 1.415,0.112 1.655,0.336 1.896,0.56 2.076,0.962 2.196,1.541 2.313,2.106 2.296,2.506 2.146,2.742 1.996,2.977 1.683,3.095 1.206,3.095 H 0.64 Z m -2.342,-1.588 1.297,6.271 H 1.39 C 2.008,4.683 2.463,4.655 2.754,4.6 3.045,4.544 3.289,4.453 3.487,4.325 3.868,4.07 4.121,3.711 4.244,3.248 4.366,2.785 4.358,2.216 4.218,1.541 4.072,0.832 3.813,0.235 3.442,-0.249 3.07,-0.733 2.596,-1.093 2.02,-1.328 1.796,-1.422 1.526,-1.489 1.21,-1.528 0.894,-1.568 0.397,-1.588 -0.282,-1.588 Z" />
    </g>
    <g
       transform="matrix(0.37629629,0,0,-0.37629629,95.684561,289.03687)"
       id="g178">
      <path
         inkscape:connector-curvature="0"
         id="path180"
         style="fill:#ffffff;fill-opacity:1;fill-rule:nonzero;stroke:none"
         d="m 0,0 1.297,6.27 h 5.01 L 5.997,4.768 H 3 L 2.827,3.933 H 5.361 L 5.063,2.494 H 2.529 l -0.2,-0.97 h 3.12 L 5.134,0 Z" />
    </g>
    <g
       transform="matrix(0.37629629,0,0,-0.37629629,65.18652,280.74032)"
       id="g182">
      <path
         inkscape:connector-curvature="0"
         id="path184"
         style="fill:#f27915;fill-opacity:1;fill-rule:nonzero;stroke:none"
         d="M 0,0 H 1.546 L 2.84,6.271 H 1.295 Z" />
    </g>
    <g
       transform="matrix(0.37629629,0,0,-0.37629629,64.364428,284.88862)"
       id="g186">
      <path
         inkscape:connector-curvature="0"
         id="path188"
         style="fill:#f27915;fill-opacity:1;fill-rule:nonzero;stroke:none"
         d="M 0,0 H 1.546 L 2.84,6.271 H 1.295 Z" />
    </g>
    <g
       transform="matrix(0.37629629,0,0,-0.37629629,63.51031,289.03687)"
       id="g190">
      <path
         inkscape:connector-curvature="0"
         id="path192"
         style="fill:#f27915;fill-opacity:1;fill-rule:nonzero;stroke:none"
         d="M 0,0 H 1.546 L 2.84,6.271 H 1.295 Z" />
    </g>
    <g
       transform="matrix(0.37629629,0,0,-0.37629629,21.79448,280.77904)"
       id="g194">
      <path
         inkscape:connector-curvature="0"
         id="path196"
         style="fill:#ffffff;fill-opacity:1;fill-rule:nonzero;stroke:none"
         d="m 0,0 h 4.725 c 3.066,0 5.188,0.301 6.364,0.902 1.175,0.601 1.942,1.667 2.297,3.198 0.361,1.549 0.113,2.624 -0.741,3.226 C 11.79,7.927 9.787,8.228 6.638,8.228 H 1.913 Z m -19.857,-22.168 9.363,40.264 H 8.342 c 4.165,0 7.414,-0.215 9.75,-0.643 2.335,-0.428 4.211,-1.116 5.628,-2.064 1.821,-1.257 3.033,-2.815 3.638,-4.674 C 27.961,8.856 27.967,6.651 27.374,4.1 26.327,-0.401 24.012,-3.85 20.43,-6.246 16.847,-8.642 12.207,-9.84 6.508,-9.84 h -8.796 l -2.867,-12.328 z" />
    </g>
    <g
       transform="matrix(0.37629629,0,0,-0.37629629,29.815761,289.12097)"
       id="g198">
      <path
         inkscape:connector-curvature="0"
         id="path200"
         style="fill:#ffffff;fill-opacity:1;fill-rule:nonzero;stroke:none"
         d="M 0,0 9.362,40.264 H 24.064 L 20.886,26.597 h 13.708 l 3.178,13.667 H 52.474 L 43.112,0 H 28.41 l 3.629,15.608 H 18.331 L 14.702,0 Z" />
    </g>
    <g
       transform="matrix(0.37629629,0,0,-0.37629629,47.400993,284.3997)"
       id="g202">
      <path
         inkscape:connector-curvature="0"
         id="path204"
         style="fill:#ffffff;fill-opacity:1;fill-rule:nonzero;stroke:none"
         d="m 0,0 h 14.298 c 0.054,-1.458 0.526,-2.506 1.414,-3.143 0.887,-0.639 2.357,-0.957 4.409,-0.957 1.719,0 3.132,0.259 4.237,0.779 1.105,0.519 1.763,1.234 1.975,2.146 0.339,1.457 -1.447,2.642 -5.359,3.553 C 20.187,2.56 19.587,2.697 19.173,2.788 15.974,3.554 13.447,4.251 11.594,4.879 9.74,5.508 8.421,6.096 7.637,6.642 6.134,7.754 5.122,9.084 4.602,10.633 c -0.521,1.549 -0.55,3.317 -0.088,5.303 0.928,3.991 3.366,7.125 7.315,9.403 3.948,2.278 8.917,3.417 14.906,3.417 5.885,0 10.263,-1.089 13.134,-3.266 2.871,-2.178 4.052,-5.299 3.542,-9.362 H 29.455 c 0.047,1.184 -0.343,2.068 -1.17,2.651 -0.828,0.583 -2.134,0.875 -3.916,0.875 -1.575,0 -2.799,-0.228 -3.671,-0.684 -0.873,-0.455 -1.417,-1.148 -1.633,-2.077 -0.309,-1.331 1.442,-2.442 5.255,-3.335 0.331,-0.091 0.585,-0.155 0.763,-0.191 0.551,-0.128 1.387,-0.319 2.509,-0.574 5.05,-1.185 8.281,-2.26 9.694,-3.226 1.755,-1.185 2.923,-2.533 3.504,-4.045 0.581,-1.513 0.632,-3.299 0.153,-5.358 -1.034,-4.447 -3.595,-7.863 -7.683,-10.25 -4.089,-2.388 -9.427,-3.581 -16.017,-3.581 -6.071,0 -10.606,1.193 -13.605,3.581 C 0.639,-7.699 -0.573,-4.337 0,0" />
    </g>
  </g>
</svg>
