<?xml version="1.0" encoding="UTF-8" standalone="no"?>
<svg
   xmlns:dc="http://purl.org/dc/elements/1.1/"
   xmlns:cc="http://creativecommons.org/ns#"
   xmlns:rdf="http://www.w3.org/1999/02/22-rdf-syntax-ns#"
   xmlns:svg="http://www.w3.org/2000/svg"
   xmlns="http://www.w3.org/2000/svg"
   xmlns:sodipodi="http://sodipodi.sourceforge.net/DTD/sodipodi-0.dtd"
   xmlns:inkscape="http://www.inkscape.org/namespaces/inkscape"
   version="1.0"
   width="400"
   height="120"
   viewBox="0 0 4000 1200"
   preserveAspectRatio="xMidYMid meet"
   id="svg62"
   sodipodi:docname="landscape.svg"
   inkscape:version="0.92.2pre0 (973e216, 2017-07-25)">
  <metadata
     id="metadata68">
    <rdf:RDF>
      <cc:Work
         rdf:about="">
        <dc:format>image/svg+xml</dc:format>
        <dc:type
           rdf:resource="http://purl.org/dc/dcmitype/StillImage" />
        <dc:title />
      </cc:Work>
    </rdf:RDF>
  </metadata>
  <defs
     id="defs66" />
  <sodipodi:namedview
     pagecolor="#ffffff"
     bordercolor="#666666"
     borderopacity="1"
     objecttolerance="10"
     gridtolerance="10"
     guidetolerance="10"
     inkscape:pageopacity="0"
     inkscape:pageshadow="2"
     inkscape:window-width="1600"
     inkscape:window-height="864"
     id="namedview64"
     showgrid="false"
     inkscape:zoom="1.7819091"
     inkscape:cx="223.22668"
     inkscape:cy="81.102137"
     inkscape:window-x="1366"
     inkscape:window-y="0"
     inkscape:window-maximized="1"
     inkscape:current-layer="svg62" />
  <rect
     style="fill:#ffffff;fill-opacity:1;stroke-width:10.37819386"
     id="rect34"
     width="4000"
     height="1200"
     x="0"
     y="-5.6843419e-14" />
  <g
     id="layer101"
     style="fill:#293982;stroke:none"
     transform="matrix(0.1192237,0,0,0.1192237,816.88295,469.01545)">
    <g
       id="g106"
       transform="translate(-2730.9871,-4331.9106)">
      <g
         id="g153">
        <path
           d="m 5255,8383 c -189,-44 -318,-170 -390,-383 -38,-111 -49,-221 -42,-425 9,-251 54,-445 152,-660 115,-248 300,-423 498,-469 87,-20 232,-20 311,0 153,39 278,160 342,332 94,247 60,711 -77,1055 -68,173 -146,295 -249,390 -126,116 -258,167 -430,166 -52,-1 -104,-3 -115,-6 z m 183,-297 c 132,-69 248,-408 297,-870 29,-269 18,-397 -39,-460 -29,-31 -40,-36 -76,-36 -60,0 -105,32 -155,109 -89,140 -160,395 -205,737 -16,125 -17,352 -1,399 38,111 108,158 179,121 z"
           id="path2"
           inkscape:connector-curvature="0" />
        <path
           d="m 6695,8371 c -92,-27 -167,-75 -239,-152 -154,-163 -224,-423 -197,-732 47,-531 325,-943 699,-1037 94,-24 263,-26 373,-6 87,17 209,70 209,91 0,8 -8,36 -19,62 -10,26 -31,84 -46,128 -15,44 -29,82 -31,84 -2,2 -15,-4 -29,-13 -15,-10 -56,-28 -91,-42 -287,-108 -525,160 -619,696 -21,117 -20,359 1,430 39,131 124,210 226,210 h 54 l 13,-82 c 7,-46 25,-155 41,-243 15,-88 30,-177 33,-197 l 6,-38 h -100 c -54,0 -99,-3 -99,-7 0,-5 5,-26 10,-48 5,-22 14,-76 20,-120 6,-44 13,-88 16,-97 5,-17 28,-18 289,-18 h 284 l -5,38 c -3,20 -16,100 -29,177 -13,77 -36,212 -50,300 -32,189 -73,428 -81,468 -5,25 -20,36 -108,78 -55,27 -137,58 -181,69 -104,26 -265,26 -350,1 z"
           id="path4"
           inkscape:connector-curvature="0" />
        <path
           d="m 10160,8370 c -72,-22 -170,-69 -214,-105 l -30,-24 17,-38 c 9,-21 32,-81 53,-133 20,-52 38,-97 39,-98 2,-2 30,13 62,34 70,44 178,84 231,84 22,0 61,-12 93,-27 110,-56 151,-192 93,-311 -15,-31 -50,-84 -77,-117 -215,-262 -252,-319 -291,-443 -66,-209 -9,-460 135,-603 71,-70 163,-123 249,-143 83,-20 228,-20 318,-1 79,16 182,63 182,82 0,7 -7,34 -17,60 -9,26 -29,84 -44,128 -15,44 -31,79 -35,77 -5,-1 -47,-16 -94,-32 -105,-36 -167,-38 -235,-7 -106,50 -145,170 -90,278 23,47 82,126 157,210 95,108 171,225 210,324 30,76 32,87 32,210 0,118 -2,138 -28,210 -75,210 -203,339 -381,386 -94,25 -247,24 -335,-1 z"
           id="path6"
           inkscape:connector-curvature="0" />
        <path
           d="m 11170,8371 c -63,-17 -182,-74 -228,-109 l -22,-17 55,-134 c 30,-74 57,-136 59,-138 2,-3 29,12 59,32 61,40 176,84 222,85 124,0 219,-99 219,-230 1,-84 -34,-150 -146,-280 -108,-127 -152,-187 -198,-273 -57,-108 -70,-162 -70,-301 0,-107 4,-130 29,-203 16,-45 42,-104 59,-130 69,-108 191,-194 318,-227 79,-21 233,-21 321,0 71,16 183,61 183,74 0,7 -90,273 -94,277 -1,2 -35,-11 -74,-28 -100,-41 -183,-48 -248,-20 -91,41 -124,90 -124,187 0,77 24,121 138,257 202,240 270,365 287,532 12,116 -29,285 -97,400 -75,125 -191,215 -324,249 -83,21 -240,20 -324,-3 z"
           id="path8"
           inkscape:connector-curvature="0" />
        <path
           d="m 12880,8366 c -77,-23 -158,-63 -206,-101 l -27,-21 21,-55 c 32,-87 83,-213 87,-217 1,-2 33,15 69,37 176,108 312,104 392,-12 35,-51 51,-129 39,-188 -11,-54 -58,-127 -154,-242 -158,-189 -196,-250 -236,-380 -25,-80 -27,-97 -22,-205 5,-132 27,-210 84,-302 70,-111 199,-205 323,-234 83,-20 228,-20 318,-1 75,15 182,63 182,80 -1,24 -89,270 -96,269 -5,0 -26,-8 -46,-17 -55,-25 -146,-47 -193,-47 -61,0 -139,41 -171,90 -41,62 -45,141 -9,211 23,47 84,129 157,210 13,15 34,41 48,59 14,19 34,45 45,59 48,61 93,143 126,228 20,54 29,178 20,270 -11,101 -50,213 -102,291 -42,62 -129,145 -187,177 -121,68 -316,85 -462,41 z"
           id="path10"
           inkscape:connector-curvature="0" />
        <path
           d="m 2170,8353 c 0,-4 9,-59 20,-123 18,-110 52,-317 106,-650 63,-389 75,-465 100,-610 14,-85 32,-198 40,-250 8,-52 21,-135 30,-183 l 16,-89 332,4 331,4 85,29 c 193,67 285,202 284,420 -1,128 -24,236 -76,344 -32,69 -56,101 -117,161 -126,125 -220,159 -458,167 l -162,6 -6,51 c -3,28 -17,116 -30,196 -22,130 -68,413 -81,498 l -5,32 h -204 c -113,0 -205,-3 -205,-7 z m 766,-1082 c 77,-35 120,-106 148,-243 21,-101 20,-154 -3,-205 -25,-54 -64,-74 -161,-80 l -77,-6 -22,134 c -12,74 -31,190 -42,259 -12,69 -23,133 -26,143 -4,15 4,17 69,17 49,0 86,-6 114,-19 z"
           id="path12"
           inkscape:connector-curvature="0" />
        <path
           d="m 3460,8349 c 0,-6 7,-50 15,-98 23,-140 105,-641 150,-916 14,-88 39,-239 54,-335 16,-96 41,-249 56,-340 15,-91 29,-176 31,-188 l 5,-24 322,4 322,4 82,32 c 137,55 208,140 238,287 32,155 -11,350 -108,489 -39,55 -130,135 -189,163 -31,15 -57,31 -57,35 -1,8 127,381 234,683 26,72 52,149 60,173 l 13,42 h -212 -212 l -38,-127 c -21,-71 -46,-153 -56,-183 -16,-51 -138,-450 -146,-477 -6,-23 -43,-15 -48,10 -2,12 -16,96 -31,187 -14,91 -38,233 -51,315 -14,83 -27,166 -30,185 -2,19 -7,47 -10,63 l -6,27 h -194 c -135,0 -194,-3 -194,-11 z m 734,-1079 c 74,-50 136,-211 136,-353 0,-122 -35,-163 -154,-174 l -63,-6 -17,114 c -10,63 -29,177 -42,254 -13,76 -24,152 -24,168 v 29 l 64,-4 c 46,-3 74,-10 100,-28 z"
           id="path14"
           inkscape:connector-curvature="0" />
        <path
           d="m 7533,8338 c 3,-13 8,-45 12,-73 4,-27 17,-113 30,-190 13,-77 35,-210 49,-295 78,-484 131,-806 157,-959 11,-69 27,-168 35,-220 8,-53 17,-108 20,-123 l 6,-28 h 281 c 155,0 311,5 346,10 149,25 264,110 317,237 25,61 28,79 28,183 1,94 -4,129 -23,190 -53,164 -155,295 -279,355 -73,35 -72,20 -8,200 26,72 67,186 91,255 24,69 71,203 104,299 34,96 61,176 61,178 0,2 -95,2 -212,1 l -211,-3 -23,-70 c -12,-38 -34,-108 -48,-155 -52,-170 -138,-447 -157,-507 -15,-47 -25,-63 -39,-63 -15,0 -20,13 -29,68 -6,37 -25,150 -41,252 -43,263 -70,421 -76,453 l -6,27 h -195 -195 z m 718,-1061 c 90,-55 140,-169 147,-333 6,-152 -25,-194 -151,-197 l -60,-2 -27,160 c -15,88 -36,213 -47,278 l -19,117 h 61 c 45,0 69,-6 96,-23 z"
           id="path16"
           inkscape:connector-curvature="0" />
        <path
           d="m 8875,8333 c 10,-66 57,-353 85,-528 30,-185 55,-336 106,-655 13,-85 36,-220 49,-300 13,-80 29,-179 35,-220 5,-41 15,-99 21,-127 l 10,-53 h 440 439 l -6,43 c -3,23 -14,92 -25,154 -10,62 -19,115 -19,118 0,3 -108,5 -239,5 h -239 l -7,63 c -4,34 -18,123 -31,197 -13,74 -24,147 -24,163 v 27 h 214 215 l -5,38 c -6,42 -32,193 -40,235 l -6,27 h -216 -217 l -19,113 c -10,61 -26,166 -37,232 -10,66 -21,135 -25,153 l -6,32 h 256 c 141,0 256,3 256,7 0,4 -12,74 -27,155 l -26,148 h -458 -458 z"
           id="path18"
           inkscape:connector-curvature="0" />
        <path
           d="m 12000,8349 c 0,-11 6,-52 56,-359 14,-85 36,-222 49,-305 13,-82 38,-235 55,-340 17,-104 42,-260 56,-345 14,-85 36,-220 49,-300 13,-80 27,-169 30,-197 l 7,-53 h 207 208 l -23,133 c -28,169 -76,458 -108,657 -49,305 -77,478 -106,650 -15,96 -38,234 -50,305 -11,72 -23,138 -26,148 -5,15 -23,17 -205,17 -141,0 -199,-3 -199,-11 z"
           id="path20"
           inkscape:connector-curvature="0" />
        <path
           d="m 13946,8323 c 3,-21 16,-103 29,-183 13,-80 35,-217 49,-305 15,-88 40,-243 57,-345 16,-102 41,-255 55,-340 53,-328 66,-406 71,-422 4,-17 -10,-18 -187,-18 h -191 l 7,-65 c 4,-35 12,-93 18,-127 l 11,-63 588,-3 c 323,-1 587,1 587,5 0,5 -7,49 -15,98 -9,50 -18,105 -21,122 l -5,33 -191,2 -192,3 -12,75 c -19,110 -83,505 -149,918 -14,86 -39,236 -55,332 -16,96 -34,208 -40,248 l -12,72 h -203 -204 z"
           id="path22"
           inkscape:connector-curvature="0" />
        <path
           d="m 14660,8356 c 0,-4 3,-11 110,-256 16,-36 54,-123 85,-195 32,-71 81,-184 110,-250 29,-66 74,-169 100,-230 26,-60 62,-144 80,-185 33,-75 135,-308 159,-365 8,-16 27,-61 44,-100 17,-38 56,-126 86,-195 l 55,-125 119,-3 c 140,-3 123,-22 147,163 8,66 24,179 35,250 23,156 70,486 155,1080 14,99 32,224 40,277 24,155 46,138 -179,138 h -195 l -5,-42 c -3,-24 -12,-110 -21,-193 -9,-82 -19,-167 -22,-187 l -6,-38 h -192 -192 l -53,128 c -102,246 -111,267 -125,300 l -15,32 h -160 c -88,0 -160,-2 -160,-4 z m 866,-758 c -4,-20 -13,-98 -44,-383 l -7,-59 -52,129 c -29,72 -71,174 -93,228 -22,53 -40,99 -40,102 0,3 54,5 120,5 120,0 120,0 116,-22 z"
           id="path24"
           inkscape:connector-curvature="0" />
      </g>
    </g>
  </g>
  <g
     id="layer102"
     style="fill:#eb1a2b;stroke:none"
     transform="matrix(0.1192237,0,0,0.1192237,754.60343,-50.607575)">
    <g
       id="g92">
      <g
         id="g124">
        <path
           d="m 7582,6229 c -29,-5 -87,-25 -128,-43 -322,-149 -425,-675 -243,-1244 61,-193 146,-346 258,-465 75,-80 142,-126 243,-170 71,-31 77,-32 223,-32 h 150 l 78,37 c 95,46 187,133 235,224 17,34 44,106 59,160 25,91 28,114 28,279 0,357 -90,695 -252,944 -52,79 -170,192 -245,234 -121,67 -284,98 -406,76 z m 162,-303 c 126,-52 244,-389 296,-839 43,-378 11,-525 -114,-527 -119,-1 -221,169 -294,492 -55,240 -87,502 -80,645 6,115 42,197 98,225 42,22 51,22 94,4 z"
           id="path45"
           inkscape:connector-curvature="0" />
        <path
           d="m 0,6188 c 0,-13 6,-61 14,-108 8,-47 26,-155 40,-240 34,-215 71,-442 107,-660 16,-102 41,-255 55,-340 14,-85 36,-220 49,-300 13,-80 27,-169 30,-198 l 7,-54 327,4 c 291,4 334,7 398,25 162,46 255,136 299,287 13,48 15,84 11,175 -9,203 -70,354 -187,471 -119,118 -245,163 -486,176 -148,8 -138,1 -149,89 -4,28 -20,127 -35,220 -16,94 -39,229 -50,300 -12,72 -24,140 -27,153 -5,22 -6,22 -204,22 H 0 Z M 789,5097 c 66,-44 113,-147 130,-282 11,-98 -1,-153 -44,-193 -35,-32 -36,-33 -122,-30 l -87,3 -18,100 c -9,55 -26,159 -38,230 -11,72 -23,147 -26,169 l -7,39 86,-5 c 71,-4 92,-9 126,-31 z"
           id="path47"
           inkscape:connector-curvature="0" />
        <path
           d="m 1034,6185 c 4,-14 17,-49 30,-78 25,-54 98,-220 121,-272 23,-56 72,-169 123,-285 28,-63 75,-171 105,-240 30,-69 79,-181 109,-250 31,-69 76,-172 101,-230 91,-210 159,-367 193,-441 19,-42 34,-82 34,-88 0,-7 39,-11 125,-11 h 124 l 5,33 c 3,17 17,115 31,217 50,354 76,536 105,735 16,110 41,283 55,385 15,102 37,258 51,347 13,89 24,171 24,182 0,21 -4,21 -195,21 -149,0 -195,-3 -195,-12 0,-7 -5,-43 -10,-80 -6,-38 -15,-121 -20,-185 -6,-65 -13,-134 -17,-155 l -6,-38 h -193 c -192,0 -195,0 -204,23 -5,12 -22,54 -38,92 -16,39 -56,134 -88,213 l -58,142 h -159 -159 z m 856,-747 c 0,-39 -39,-386 -46,-408 -6,-19 -41,59 -170,383 l -23,57 h 120 119 z"
           id="path49"
           inkscape:connector-curvature="0" />
        <path
           d="m 2504,6193 c 2,-10 9,-49 15,-88 6,-38 25,-153 41,-255 17,-102 42,-255 56,-340 58,-360 77,-474 104,-640 50,-304 79,-483 86,-533 l 7,-49 316,5 c 282,3 323,6 382,24 104,33 164,78 222,168 79,124 73,359 -14,540 -43,89 -159,208 -241,248 l -56,27 13,42 c 8,24 32,95 55,158 23,63 48,133 55,155 8,22 41,119 75,215 34,96 72,206 86,244 13,38 24,75 24,83 0,10 -42,13 -208,13 h -208 l -66,-212 c -36,-117 -92,-300 -124,-405 -53,-172 -61,-193 -81,-193 -18,0 -22,7 -28,53 -3,28 -17,117 -30,197 -22,134 -66,403 -83,510 l -7,45 -198,3 c -186,2 -198,1 -193,-15 z m 731,-1077 c 46,-30 93,-107 115,-188 43,-160 36,-264 -21,-312 -26,-22 -40,-26 -99,-26 -79,0 -71,-12 -95,140 -10,58 -28,168 -41,246 -13,77 -24,147 -24,154 0,19 132,8 165,-14 z"
           id="path51"
           inkscape:connector-curvature="0" />
        <path
           d="m 3990,6188 c 0,-11 9,-71 19,-132 11,-61 31,-183 45,-271 25,-157 111,-687 161,-995 14,-85 27,-165 29,-177 l 3,-23 h -188 c -173,0 -189,-1 -189,-17 0,-10 10,-78 22,-150 l 23,-133 h 588 589 l -5,23 c -3,12 -15,79 -28,150 l -22,127 h -188 c -170,0 -188,2 -193,18 -2,9 -14,73 -25,142 -51,314 -72,446 -96,595 -14,88 -39,239 -55,335 -16,96 -41,249 -55,340 -15,91 -29,171 -31,178 -2,9 -52,12 -204,12 -198,0 -200,0 -200,-22 z"
           id="path53"
           inkscape:connector-curvature="0" />
        <path
           d="m 4930,6188 c 0,-13 14,-104 30,-203 29,-170 47,-282 105,-640 36,-223 82,-511 109,-675 13,-80 32,-198 42,-262 l 18,-118 h 204 204 l -7,53 c -3,28 -19,129 -35,222 -27,159 -43,258 -105,640 -13,83 -38,236 -55,340 -61,372 -79,481 -90,555 -6,41 -14,83 -16,93 -5,15 -23,17 -205,17 h -199 z"
           id="path55"
           inkscape:connector-curvature="0" />
        <path
           d="m 5644,6193 c 2,-10 12,-65 21,-123 17,-114 49,-315 95,-590 15,-96 40,-249 55,-340 42,-269 71,-443 106,-653 l 34,-199 300,5 c 270,3 308,6 378,26 213,59 342,201 393,431 27,120 25,360 -4,527 -84,487 -292,796 -602,893 -81,26 -278,40 -568,40 -198,0 -213,-1 -208,-17 z m 666,-311 c 25,-13 55,-36 68,-50 103,-122 185,-373 222,-685 33,-273 23,-417 -36,-494 -38,-50 -72,-63 -167,-63 h -83 l -23,143 c -13,78 -36,219 -51,312 -16,94 -40,242 -54,330 -15,88 -38,230 -51,315 -14,85 -28,170 -31,189 l -5,33 83,-3 c 63,-3 94,-10 128,-27 z"
           id="path57"
           inkscape:connector-curvature="0" />
      </g>
    </g>
  </g>
  <g
     id="g977"
     transform="matrix(1.0003219,0,0,1.0003219,-437.13622,-72.350141)">
    <path
       inkscape:connector-curvature="0"
       id="path40"
       d="m 17655.397,2866.8905 v -544.9998 l -27,-5.9999 c -25,-7.0001 -218,-102.0001 -319,-157.0001 -68,-37 -264,-172.9999 -349,-239.9999 -110,-88.9999 -295,-273.9999 -386,-386.9999 -377,-467.9999 -571,-990.9997 -586,-1579.999499 -13,-478.000001 90,-905.999901 318,-1320.999801 50,-90.9999 150,-246.9999 193,-299.9999 12,-15 29,-38 40,-53 10,-14 24,-33 31,-42 13,-18 -3,-26 288,148 54,32 99,58 101,58 2,0 55,30 117,66 63,37 132,76.9999 154,88.9999 72,40 539,306 595,339 30,17.9999 82,47.9999 115,65.9999 155,87 319,229.0001 398,346 75,108.9999 126,238.9999 153.999,387.9999 15,81 17,208.999901 20.001,1166.9997 l 3.999,1075.9997 52,7 c 66,8.0002 148,8.0002 215,0 l 52,-7 V 927.8911 c 0,-1151.9998 1,-1168.9998 59,-1345.9996 59,-177 145,-302 296,-429 71,-61 130,-103 190,-137 11,-6 65,-37 120,-69 55,-31.9999 165,-94.9999 245,-139.9999 80,-45 163,-92 185,-105 22,-13 58,-33 80,-45 22,-12 63,-36 91,-52 27,-17 70,-41 95,-55 24,-13.9999 88,-50.9999 141,-81.9999 254,-146 295,-170 328,-188 19,-11 48,-29 63,-40 16,-11 32,-17 36,-12 120,134 313,453.9999 395.999,653.9999 138.001,335.9999 218,772.9998 200,1094.999701 -44.999,817.999799 -413.999,1515.999599 -1063.999,2009.999499 -149,113 -493,306.9999 -585,330.9999 l -26,5.9999 v 543.9999 543.9998 h -425 -425 v -444.9998 -444.9999 h -160 -159.999 v 444.9999 444.9999 h -430 -430 z m -15,-3049.9991 c -12,-78 -25,-120 -60,-191 -69,-143 -129,-199.9999 -325,-313.9999 -41,-24 -108,-63 -148,-87 -40,-24 -75,-42.9999 -78,-42.9999 -2,0 -22,-12.0001 -44,-26.0001 -22,-15 -42,-25 -44,-23 -11,13 -49,152 -71,259 -65,320.9999 -66,693.999801 -4,971.9997 98,435.9999 305,822.9998 596,1114.9997 45,45 106,101 135,124 l 53,42 3,-863.9998 c 2.001,-741.999799 0,-877.999699 -13,-963.9997 z m 2119.999,1774.9994 c 81,-63.9999 237,-227.9998 312,-327.9998 334,-441.9999 481,-947.9997 445,-1534.9997 -15,-256.9999 -85,-597.9998 -121,-588.9998 -10,2.0003 -160,86 -266,148 -22,13 -65,38 -96,54 -199,110 -307,278.9999 -339,533.9998 -11,86.000001 -15,1765.9996 -3.999,1765.9996 3,0 35,-23 69,-50.0001 z"
       style="fill:#293982;stroke:none;stroke-width:0.99999976"
       transform="matrix(0.1191853,0,0,0.1191853,989.85358,625.37076)" />
    <circle
       r="94.000313"
       cy="379.60919"
       cx="3214.2493"
       id="path167"
       style="fill:#eb1a2b;fill-opacity:1;stroke-width:10" />
  </g>
</svg>
